<?xml version="1.0" encoding="UTF-8"?>
<!DOCTYPE svg PUBLIC "-//W3C//DTD SVG 1.1//EN" "http://www.w3.org/Graphics/SVG/1.1/DTD/svg11.dtd">
<!-- Creator: CorelDRAW X6 -->
<svg xmlns="http://www.w3.org/2000/svg" xml:space="preserve" width="14.125in" height="9.366in" version="1.1" style="shape-rendering:geometricPrecision; text-rendering:geometricPrecision; image-rendering:optimizeQuality; fill-rule:evenodd; clip-rule:evenodd"
viewBox="0 0 14125 9366"
 xmlns:xlink="http://www.w3.org/1999/xlink">
 <defs>
  <style type="text/css">
   <![CDATA[
    .fil1 {fill:none}
    .fil0 {fill:#161FE9}
   ]]>
  </style>
   <clipPath id="id0">
    <path d="M0 0l14125 0 0 9366 -14125 0 0 -9366z"/>
   </clipPath>
 </defs>
 <g id="Layer_x0020_1">
  <metadata id="CorelCorpID_0Corel-Layer"/>
  <g>
  </g>
  <g style="clip-path:url(#id0)">
   <g>
    <path class="fil0" d="M171 4454c-5,29 -2,21 6,43 7,19 4,32 11,52 44,128 150,399 220,482 27,33 33,71 73,88l14 8c28,25 51,50 87,67 16,8 18,13 38,24l59 29c8,4 11,8 19,13 26,16 55,16 79,32l57 32c32,21 64,38 94,64 61,53 150,146 208,212 11,13 17,22 29,34 40,40 51,90 122,114 85,34 651,-18 702,-12 18,5 33,100 37,120 9,43 19,86 28,128l175 783c13,57 6,80 34,123 84,135 64,469 84,555 16,70 21,208 34,285 7,42 23,97 20,143 35,8 19,30 138,27 157,-3 394,-30 531,42 14,8 4,2 15,6 22,8 23,18 46,27 28,11 5,1 28,19 21,17 41,23 60,39 12,10 18,12 30,22 52,44 118,81 166,127 20,19 36,24 56,44 28,27 25,22 56,44 7,5 6,3 13,8 1,1 2,2 3,2 45,42 103,74 153,114l57 42c4,69 17,175 11,240l1 68c4,89 -7,186 -19,275l-2 28c2,17 0,7 4,13 81,15 166,-2 245,-7 181,-10 391,-42 567,-43 24,0 28,0 65,-2 2,0 19,-2 22,-2 83,0 146,9 225,10l244 23c199,15 339,23 541,25l2548 1c22,0 47,1 68,0 16,0 24,-5 36,-13l15 -9c10,-319 -45,-653 -48,-965 0,-14 -16,-122 -1,-130 417,-44 876,-56 1300,-79 15,-1 29,-6 37,-6 97,-1 253,-26 361,-27 127,-1 120,-13 237,-32 29,-5 59,-3 85,-10 28,-8 37,-13 70,-18 32,-5 105,-33 136,-47 13,-6 20,-4 36,-11 17,-8 12,-12 38,-12 5,6 3,-1 9,15l321 1102c6,35 24,32 58,43l53 -31c51,-39 245,-147 316,-192 179,-113 284,-205 508,-245 9,10 23,76 31,95 20,54 38,175 89,182 30,4 39,-37 58,-68 18,-30 31,-54 46,-84l79 -146c2,-4 3,-7 5,-10l32 -52c7,-14 16,-34 23,-44 42,-5 115,2 162,2 180,1 108,-29 169,-81 114,-113 256,-263 374,-364l143 -135c23,-17 21,-22 34,-50l24 -60c83,-147 216,-533 289,-721 7,-21 34,-39 14,-64 -41,-27 -259,-34 -315,-56 -2,-41 42,-416 46,-478 5,-74 28,-163 25,-240 -3,-81 19,-415 35,-484l73 -283c69,-172 63,-126 163,-272 221,-324 160,-375 198,-456 10,-22 4,5 10,-22 7,-33 -2,-50 -1,-88 1,-80 12,-168 19,-248 7,-83 4,-170 12,-250 8,-79 16,-161 18,-245 3,-84 7,-162 15,-245 9,-84 9,-169 15,-252 5,-73 21,-165 24,-238 1,-36 -18,-70 -32,-95 -12,-21 0,-2 -14,-18 -26,-28 -4,-19 -46,-53l-43 -51c-9,-13 -6,-12 -13,-24 -10,-17 -55,-49 -70,-61 -15,-11 -19,-16 -33,-29 -20,-18 -132,-80 -161,-101 -13,-10 -22,-21 -40,-28 -36,-16 -186,-21 -214,-37 -12,-7 -16,-25 -24,-39l-141 -251c-3,-7 -57,-99 -70,-133 -24,-60 -58,-116 -85,-177 -38,-87 -133,-272 -164,-359 -7,-20 -13,-30 -19,-44 -43,-105 -103,-246 -110,-354 -5,-81 -11,-295 5,-375l36 -226c6,-34 17,-43 1,-70 -12,-21 1,-12 -18,-21 -23,-5 -1193,0 -1418,0 -245,0 -191,-59 -192,231 -1,278 -11,557 -25,832 -1,17 -2,35 -3,52 -2,34 -2,26 -9,48 -4,12 -7,35 -9,48 -5,32 1,25 3,52 -26,11 -28,46 -31,76l-63 210c-12,21 -8,16 -15,41 -25,-3 -31,-12 -59,-12 -35,0 -58,1 -94,-1 -57,-4 -79,-21 -178,-23 -16,0 -87,4 -98,-7 -38,-39 -112,-700 -148,-840 -14,-54 -25,-156 -34,-219 -5,-32 -5,-42 -24,-59 12,-25 11,-8 5,-40l-31 -258c-2,-28 -5,-83 -9,-106 -51,-24 -48,12 -107,52 -31,21 -26,45 -99,79 -15,7 -39,22 -55,33 -18,12 -30,32 -51,38 -30,8 -300,26 -338,25 -36,-1 -37,-16 -81,-4 -28,8 -43,14 -72,10 -161,-23 -367,25 -532,-3 -28,-5 -52,-26 -63,-27 -119,-16 -367,-92 -446,-79 -46,8 -47,-5 -82,-5 -20,0 -18,5 -31,5 -344,-9 -707,6 -1052,8l-565 -1c-41,0 -75,-9 -115,-7l-178 4c-44,0 -87,1 -131,1 -19,0 -37,0 -56,4 -74,15 -139,93 -256,33 -23,-12 -29,-8 -47,-15l-756 -232c-48,-30 -196,-241 -251,-295 -91,11 -18,1 -138,40 -47,15 -93,29 -139,44l-754 241c-72,28 -933,-317 -1011,-345 -38,-14 -17,-17 -72,-17 -95,1 -84,-15 -114,27l-109 131c-7,9 -13,17 -21,26l-109 137c-2,2 -7,9 -9,12 -7,9 -7,7 -13,13 -25,28 -36,59 -59,87 -45,55 -82,110 -121,167l-98 143c-25,33 -30,50 -59,87 -11,14 -6,13 -16,32 -10,21 -8,7 -19,34l-164 363c-4,11 -12,24 -18,35l-57 137c-30,70 -58,135 -79,208 -9,31 -21,45 -25,75 -4,35 0,14 -13,35l-18 66c-3,12 -6,26 -11,41 -13,44 -28,121 -28,164 0,41 -16,118 -16,177 0,142 -375,-14 -538,-10 -41,1 -50,0 -65,34 -15,34 -51,180 -58,229 -2,16 -2,28 -6,42l-38 212c-10,76 -1,145 -29,213 -11,27 -3,13 -21,26 -40,29 -113,109 -142,151 -99,148 -232,358 -244,531 -19,272 -55,553 -101,821zm3041 -2165c437,147 919,137 1461,-87l-1 -1c-59,-198 -112,-446 -214,-623l-42 -63c-91,-109 -293,-266 -409,-329 -22,17 -30,40 -47,62 -19,25 -32,46 -50,70 -19,26 -32,47 -49,71l-76 102c-9,13 -15,22 -23,34 -17,25 -35,43 -51,69 -16,26 -37,47 -51,69l-276 378c-32,51 -172,214 -172,246l-1 1zm1484 -31c-528,214 -1038,230 -1534,80 -15,9 -44,56 -53,72 -16,27 -39,49 -59,77l-549 696c-6,9 -24,31 -30,38 -8,9 -8,8 -17,19 -7,9 -9,12 -16,20l-175 201c-35,43 -83,83 -121,125l-358 406c-26,31 -63,84 -94,111 -20,18 -16,28 -12,55 10,61 75,243 105,308 75,109 185,181 234,253 25,36 41,37 80,55 30,14 53,14 90,12l76 -136c49,-109 58,-110 126,-194 21,-26 30,-32 54,-56l23 -29c8,-12 17,-17 25,-27 13,-15 8,-13 24,-29 46,-45 76,-106 120,-153 44,-46 68,-61 138,-77 31,-7 42,-20 84,-21 49,-1 44,-10 90,-20l191 -29c-3,-136 6,-323 40,-457 10,-38 28,-88 41,-126 8,-23 16,-37 25,-59l43 -83c20,-38 44,-65 72,-96 5,-6 5,-5 10,-11l34 -29c205,-168 454,-92 691,-23 45,13 105,7 155,10 52,3 104,8 155,14 51,6 284,16 325,6 2,-49 -19,-94 -6,-152 16,-68 50,-111 89,-162 13,-16 20,-32 36,-47 31,-29 63,-48 81,-87 -29,-47 -37,-54 -63,-110 -56,-121 -116,-222 -170,-350zm-1514 2265l-37 -443c-31,-5 -106,3 -135,11 -45,13 -207,30 -250,53 -13,7 -9,6 -26,11 -24,6 -20,2 -44,29l-303 356c-1,1 -6,10 -8,13 -6,9 -10,15 -15,22 -11,15 -20,28 -27,46 -27,68 7,38 58,22 78,-25 158,-45 242,-61 173,-32 366,-43 544,-58zm6938 -1873c-28,5 -34,-7 -62,-13 -187,-23 -357,-38 -547,-32 -26,1 -215,50 -286,53 -14,22 -288,28 -301,5 -5,10 -4,17 1,28 85,209 225,276 398,331 201,64 737,311 862,336 5,-19 1,-33 9,-49 8,-16 8,-3 21,-37l49 -124c11,-26 9,4 17,-41 10,-50 47,-109 51,-120 18,-55 51,-113 67,-163 41,-96 273,-583 287,-724 4,-37 5,-17 23,-36l-6 -34c-89,-26 4,22 -128,-12 -45,-12 -163,-18 -219,-21 -34,-2 -51,-7 -56,26 -2,11 -169,616 -178,628zm2051 3090c85,1 145,22 229,25 101,4 664,79 714,69 16,-29 15,-162 23,-232l24 -149c6,-29 26,-118 38,-140 9,-18 16,-49 15,-74 -170,-49 -320,-88 -485,-153 -15,-5 -29,-7 -40,-12 -19,-9 -9,-10 -31,-16 -74,-20 -35,-17 -73,-26 -37,-9 -126,-49 -145,-53 -77,-16 -237,-98 -323,-127 -13,-4 -37,-26 -73,-23 -11,83 21,257 25,365 1,36 24,189 38,224 12,31 2,11 4,48 1,18 7,37 10,58 10,68 29,156 49,218zm-1498 -177c14,25 43,22 79,22l188 10c34,4 58,13 89,15 59,2 131,2 190,11 78,11 59,1 85,4 26,3 58,11 89,15l136 10c22,3 28,-2 44,-1 26,2 47,17 84,17 96,-1 116,15 178,22l177 26c18,1 32,2 50,5 34,6 44,11 41,-20l-19 -81c-4,-23 0,-38 -8,-60 -40,-104 -78,-538 -83,-647 -1,-26 -8,-95 -13,-121 -16,-5 -37,-9 -52,-15 -80,-30 -80,-20 -182,-19 -168,20 -399,25 -560,58 -102,21 -471,19 -480,27 -11,9 -9,29 -8,70 1,44 -1,96 -2,141 -1,87 -8,173 -10,262 -1,40 -25,233 -14,250zm685 158c10,232 5,291 -90,538 -19,50 -137,342 -125,372 23,27 436,84 474,101 34,15 66,4 101,15 24,7 159,26 194,27 29,-20 58,-65 81,-78 35,-21 406,-4 458,-2 99,4 199,9 298,17l293 25 50 -523c1,-23 6,-86 12,-106 18,-62 -3,-29 3,-100 3,-30 10,-86 6,-112 -47,-22 -42,-13 -107,-15 -104,-3 -133,-14 -226,-24 -42,-4 -78,-1 -119,-6 -40,-5 -71,-11 -107,-17 -41,-6 -78,-4 -119,-8 -39,-4 -70,-14 -106,-19 -39,-4 -80,-1 -117,-9 -49,-11 -3,-14 -106,-17 -20,-1 -40,-2 -60,-5 -29,-5 -25,-10 -48,-15 -34,-8 -77,-5 -115,-11 -44,-7 -57,-18 -107,-20 -113,-5 -101,-15 -166,-21 -21,-2 -31,1 -51,-2l-174 -16c-24,-1 -29,5 -28,30zm-747 784c64,20 442,112 465,111 17,-24 193,-511 202,-552 8,-40 17,-63 24,-102 7,-45 12,-212 2,-263l-5 -18c-27,-5 -63,-2 -92,-5 -61,-7 -120,-17 -182,-20 -120,-5 -248,-31 -325,-28 -42,1 -27,10 -34,123l-40 566c-5,54 -17,136 -14,188zm-3 62c-11,23 -8,40 -8,69 0,62 -7,136 -13,198 -3,33 -6,61 -7,95 -1,35 -12,71 -12,99l-8 398c0,88 16,138 43,201 177,-11 501,-299 674,-367l313 -195c78,-50 256,-175 280,-236 -27,-17 -116,-23 -155,-32 -14,-3 -24,-9 -35,-12 -52,-16 -293,-45 -366,-63 -116,-29 -264,-53 -396,-85 -47,-12 -288,-78 -310,-70zm908 613c2,25 4,36 16,57l115 330c69,248 158,514 239,761 9,38 60,243 80,257 25,-13 8,-11 26,-44 6,-12 17,-34 24,-44 32,-54 69,-130 103,-180 20,-29 32,-60 45,-95 50,-14 74,-2 132,0 53,1 105,3 157,3l43 -81c133,-127 457,-417 554,-549 55,-151 197,-532 273,-675 11,-19 27,-52 24,-77 -129,-42 -391,-65 -541,-76 -272,-21 -493,-23 -760,-23 -48,0 -47,34 -92,84l-88 95c-93,93 -229,189 -348,258zm-560 1622c17,0 118,-61 135,-73 12,-8 9,-8 26,-16l206 -129c70,-67 39,-18 101,-62 11,-8 17,-9 27,-15 112,-76 243,-130 381,-174 -28,-82 -352,-1009 -360,-1090 -5,-24 -6,-35 -33,-24 -44,18 -154,89 -202,122 -12,8 -10,5 -21,11 -115,90 -397,263 -534,304 -4,1 -47,20 -48,21 -16,11 -7,30 1,48 107,254 241,794 320,1077zm-2689 -911c22,6 25,-2 51,2 240,4 728,-52 994,-56 37,0 78,-2 115,-4 43,-2 62,-10 106,-14 -2,-19 -46,-91 -58,-111 -6,-10 -14,-24 -21,-36 -28,-51 -87,-172 -110,-204 -7,-10 -6,-10 -11,-21l-117 -228c-35,0 -306,51 -386,61 -36,4 -57,15 -90,20 -33,5 -73,1 -103,13 -39,16 -53,12 -98,17 -35,4 -54,15 -94,21 -32,4 -65,2 -97,13 -146,48 -203,-36 -157,149 18,71 52,334 74,380zm-96 -556c22,5 225,-29 254,-38 42,-14 87,-5 131,-20 47,-16 89,-8 132,-21 46,-14 72,-16 124,-22 27,-3 35,-9 59,-15 21,-5 47,-4 71,-7 49,-6 75,-22 127,-24 24,-1 44,-3 65,-10 12,-4 15,-5 29,-8 63,-15 22,-17 7,-148 -6,-55 -6,-102 -19,-153 -6,-24 -11,-45 -15,-69 -14,-86 -43,-113 -53,-210 -5,-44 -14,-20 -21,-62 -19,-116 -34,-281 -35,-398 -1,-57 8,-119 5,-173 -21,-15 -35,-24 -62,-28l-270 -96c-35,-8 -43,-15 -70,-24 -13,-5 -20,-4 -32,-10 -22,-11 -6,-12 -30,-17 -21,-5 -25,2 -39,2 -10,-1 -22,-6 -37,-7 -11,-16 2,-17 -38,-37l-221 -114c-15,-8 -9,-8 -21,-15 -17,-9 -35,-14 -50,-23 -19,-11 -34,-22 -51,-28l-4 8c-31,86 -11,434 -12,542 0,33 0,74 2,109l15 341c2,39 -3,82 1,119 9,75 16,142 16,221 0,56 17,155 21,216 3,47 5,193 22,221zm1429 479c78,1 56,-3 95,-10 12,-2 24,-1 36,0 108,12 98,-16 184,-16 86,0 92,-6 186,-19 40,-5 88,-5 127,-13 20,-4 29,-10 53,-15 19,-4 47,-2 64,-8 18,-6 20,-15 47,-20l106 -36c26,-15 29,-9 57,-16 1,-21 -30,-85 -33,-108 -15,-122 -17,-327 -6,-439 9,-94 14,-186 17,-282 3,-69 25,-239 23,-282 -192,-43 -379,-130 -559,-205 -264,-113 -538,-242 -807,-338 -39,-9 -55,-32 -102,-26 -18,166 -17,391 29,543l60 233c9,48 21,64 25,122 3,36 9,35 14,58 13,64 -4,160 70,301 8,16 14,37 23,50l272 502c6,8 -1,-3 9,12 4,6 5,8 7,13zm-3983 306l-9 233c-5,73 -13,146 -21,219l-29 210c-3,51 -17,186 -12,230l2689 4c22,0 23,2 38,-7 10,-13 -48,-831 -51,-911 -6,-145 -14,-155 -38,-141 -100,58 -836,378 -949,390 -42,8 -51,19 -99,19 -41,0 -79,3 -121,1l-211 -27c-40,-9 -58,-10 -100,-16 -33,-5 -65,-18 -97,-22 -36,-4 -67,-9 -99,-17 -37,-9 -67,-8 -105,-16 -40,-8 -46,-16 -95,-20 -73,-5 -36,-17 -99,-22 -30,-2 -76,-4 -103,-13 -28,-9 -2,-12 -43,-14 -110,-6 -66,-20 -152,-26l-198 -37c-23,-6 -71,-22 -97,-18zm-1806 329c-2,43 10,187 8,281 -2,81 -17,210 -12,283 321,3 617,-61 933,-53 126,3 232,21 319,23 57,1 393,37 431,26 7,-24 17,-183 19,-221 2,-45 -4,-71 7,-113 25,-97 46,-478 40,-567 -161,-44 -335,-77 -500,-118 -82,-20 -166,-39 -250,-58 -139,-32 -161,-27 -235,116 -10,18 -14,40 -22,56l-82 111c-4,6 -9,23 -13,29 -8,11 -6,-1 -40,38 -24,27 -65,39 -101,57 -35,17 -66,35 -102,49 -51,20 -195,61 -249,64 -36,2 -126,-7 -150,-2zm-570 -3934l363 -26c19,-4 10,-6 36,-11 26,-5 42,5 79,1l823 -61c12,-74 40,-620 34,-707 -2,-35 -10,-28 -6,-68 4,-39 8,-10 14,-42 9,-42 14,-83 45,-123 21,-27 51,-60 87,-63 1,-32 24,-172 6,-188 -14,-12 -417,-19 -496,-27 -36,-4 -50,-15 -92,-11 -201,17 -547,-231 -748,56 -8,11 -13,17 -23,30 -19,23 -24,42 -39,66 -98,164 -127,403 -133,590 -2,60 38,526 51,584zm1520 -1061c-46,10 -63,29 -83,58 -27,38 -35,43 -44,102 -6,41 -9,252 -4,292 18,4 115,-13 152,-14 28,-1 63,0 89,-3 41,-5 -5,-11 78,-12 34,0 135,-5 165,-12 64,-15 63,8 164,-3 98,-11 235,-22 336,-20l163 -4c59,-4 112,-8 171,-13 26,-104 27,-195 44,-291 5,-30 5,-19 0,-48 -9,-56 16,-10 -1,-88 -5,-21 -1,-22 0,-47 3,-56 1,-159 18,-207 9,-24 11,-67 17,-98 16,-83 24,-104 34,-190 9,-71 14,-135 23,-202 10,-69 31,-53 -157,-50 -400,6 -550,16 -905,109 -17,8 -22,11 -29,22 -5,8 -104,105 -137,146 -145,180 -49,262 -79,475 -3,19 -2,36 -4,53 -2,17 -9,27 -12,47zm608 1900c-67,41 -32,-6 -177,8 -72,7 -132,-6 -205,-8 -73,-2 -147,0 -220,0 -72,0 -144,-8 -215,-6 -4,33 -69,681 -68,723 4,128 -13,268 -5,392 4,64 -8,126 -4,193 10,168 -23,87 41,152 45,46 103,84 158,141l155 143c63,57 34,47 146,57 63,6 123,12 185,15 18,1 35,-3 41,-2 12,2 6,8 37,12 32,4 65,6 98,9 63,6 333,33 373,30 14,-23 29,-101 32,-133 5,-46 19,-90 27,-140 14,-100 29,-193 37,-295 8,-105 10,-209 17,-314 4,-52 11,-102 15,-152 2,-25 6,-56 6,-80 0,-32 -7,-1 -7,-71 37,-30 19,-11 31,-104 5,-43 14,-74 19,-117 9,-86 15,-168 26,-251 5,-40 3,-84 8,-128 13,-119 12,-149 20,-258 4,-50 14,-62 4,-135 -3,-20 -4,-42 -5,-64 -1,-59 5,-50 -141,-20 -23,5 -39,4 -63,5 -43,2 -17,7 -50,17 -51,15 -142,-1 -214,63 -13,12 -22,20 -37,31 -76,57 -56,191 -64,286zm535 728c-31,187 -28,392 -48,586 -10,95 -23,188 -38,281l-46 271c145,36 314,42 463,71l436 82c2,0 3,0 5,0l14 -3c4,-36 -46,-178 -56,-231 -7,-36 -18,-79 -29,-118 -19,-67 -30,-335 -33,-417l-7 -377c0,-43 1,-74 -1,-116 -2,-30 9,-93 -19,-102 -16,-5 -74,12 -101,15 -38,4 -79,5 -117,7l-102 20c-1,0 -152,7 -218,18l-79 12c-12,1 -4,-3 -24,-1zm1129 2228c2,-30 -6,-38 -8,-59 -4,-46 -5,-27 -20,-55 -8,-16 -12,-41 -16,-58 -5,-24 -14,-33 -21,-57 -7,-25 -5,-37 -16,-57l-131 -324c-13,-35 -16,-24 -27,-52 -29,-69 -59,-148 -81,-223 -150,-20 -313,-57 -465,-85 -73,-14 -429,-64 -488,-62 -13,19 -10,36 -20,60 -9,20 -7,2 -10,30 -2,17 0,20 -6,38 -12,41 -19,100 -33,134 -7,19 -5,2 -10,27 -2,13 -2,26 -5,37 -6,24 -16,35 -21,64l-61 267c-10,39 -7,61 6,106 11,38 18,12 87,38 27,10 45,5 72,12 28,7 32,14 65,18 143,18 29,20 139,26 83,5 62,18 139,26 30,3 45,3 72,13 27,10 229,33 276,53 38,16 97,8 140,22l287 48c42,6 77,25 154,14zm-2082 -1109c2,18 36,53 52,63l104 100c14,16 24,24 39,40l233 243 135 185c11,16 20,36 39,44 20,-22 48,-188 59,-234 7,-30 14,-51 21,-78l46 -201c8,-41 49,-93 -10,-99 -80,-8 -695,-73 -717,-63zm-364 704c25,-2 39,-48 96,-44l371 79c68,15 463,105 498,104 -1,-46 -45,-140 -67,-175 -35,-57 -67,-91 -107,-134l-54 -66c-13,-16 -11,-18 -26,-32l-427 -426c-54,-40 -68,-30 -146,-37 -69,-6 -158,-20 -225,-20 -24,0 -14,22 -9,88 9,116 40,382 60,488 7,37 1,64 11,88 22,55 20,75 24,86zm1408 -2977c-8,23 -1,75 3,106 4,34 1,68 1,102 0,20 -6,21 -6,45 0,23 2,33 -2,57 -15,102 -10,215 -29,326 -5,29 -5,77 -7,109 -2,38 -10,71 -13,105 -5,66 -13,153 -28,210 -13,50 20,33 62,29 39,-4 75,-3 114,-6 92,-7 63,-19 211,-22 42,-1 65,-10 101,-16 42,-7 72,-7 114,-9 32,-2 56,-25 88,-23 78,5 246,-17 325,-23 71,-6 154,-8 225,-10 44,-1 111,-19 156,-4 14,5 -6,0 12,4 9,2 6,1 15,2 46,4 56,3 70,76 21,111 20,92 27,211 2,35 15,21 20,97 5,72 21,142 24,212 3,74 12,110 25,179l8 26c35,11 239,0 283,-6 41,-6 89,-10 130,-13 89,-7 63,4 137,-17 3,-65 -7,-135 -4,-217l-14 -214c-7,-46 -7,-96 -3,-139l-5 -443c-4,-50 18,-89 25,-128l-78 -48c-11,-6 -18,-5 -30,-12 -296,-168 -1055,-538 -1315,-559 -259,-21 -347,4 -571,-4 -26,-1 -48,11 -70,19zm622 1077c-7,23 3,869 45,1012 7,25 15,55 19,81l85 308c21,46 47,151 77,210l32 67c6,14 6,25 11,36 7,17 9,10 18,29 5,12 7,24 12,35 34,73 49,134 69,182 5,12 11,19 16,31l84 256c4,12 7,24 11,36 16,45 51,26 102,17 235,-74 895,-358 998,-404 0,-95 -19,-194 -38,-287 -18,-88 -37,-195 -44,-284 -8,-102 -23,-199 -26,-303 -1,-24 3,-53 -3,-74 -16,-65 -7,-194 -26,-223 -29,-4 -87,12 -125,16 -48,4 -93,4 -142,5 -104,2 -240,34 -310,1 -15,-7 -12,1 -21,-16 -2,-5 -14,-49 -16,-57 -17,-74 -35,-298 -47,-393 -7,-50 -33,-279 -50,-315 -11,-23 -23,-18 -52,-20 -46,-3 -95,2 -141,2 -67,0 -170,22 -272,23 -83,1 -164,13 -246,24l-18 5zm-1984 -2047c-12,24 -15,135 -18,171 -3,44 -15,24 -7,80 9,66 -13,171 -13,171 2,24 26,34 19,72 -7,35 -17,18 -18,75 0,30 -8,53 -8,89 -1,40 -20,45 -9,74 18,52 3,31 4,80 1,48 5,130 -7,167 -12,36 -25,308 -22,354l331 14c22,-1 18,4 40,6 56,5 359,16 393,-4 6,-69 7,-220 63,-272 10,-9 21,-16 32,-25 11,-9 23,-15 37,-21 -1,-32 -24,-74 -38,-107l-24 -64c-4,-12 -2,-7 -6,-15l-57 -126c-14,-32 -4,-28 -20,-53 -14,-22 -12,-32 -13,-62 -34,-11 -4,10 -40,-57 -8,-15 -8,-20 -14,-38l-64 -141c-6,-15 -5,-22 -14,-38 -22,-43 -9,-23 -20,-53 -15,-42 -11,-63 -12,-121 -1,-31 -2,-62 -3,-94 -1,-26 1,-78 -11,-97 -143,5 -221,10 -357,27 -30,4 -103,4 -123,9zm845 940c2,24 -6,43 18,52 24,9 40,-5 62,-8 21,-3 49,-2 67,-8 18,-6 26,-15 54,-19 21,-3 54,-1 71,-4 32,-6 -4,-21 122,-25 40,-1 32,2 57,-14 6,-41 -4,-83 -7,-125l-9 -188c-4,-16 -4,-2 -8,-23 -1,-5 -1,-29 -2,-36 -1,-45 -2,-92 -1,-136 1,-42 -1,-231 7,-250 14,-31 5,-4 9,-53 4,-55 26,-137 21,-183 -77,0 -171,5 -246,16 -60,9 -496,13 -505,18 -22,11 -9,85 -8,113 1,42 -2,91 1,131 5,68 39,144 65,196l73 189c12,45 11,7 44,87l39 91c10,48 -28,-14 28,93l29 68c9,23 -6,5 18,20zm509 -33c59,5 479,-7 529,-18l7 -383c1,-67 4,-132 5,-199 0,-72 -8,-126 -7,-194 3,-242 -40,-514 -28,-767 -54,2 -77,5 -123,19 -20,6 -42,5 -57,10 -25,7 -8,12 -47,21 -36,8 -127,57 -193,80 -38,13 -24,66 -26,108 -4,78 -22,161 -35,238l-32 238c-2,56 -20,149 -21,183l-5 127c11,72 -10,151 2,194 13,48 23,192 25,247 2,49 -23,31 -11,62 3,7 5,7 6,10l7 10c3,5 4,10 5,14zm-5747 -373c-1,1 -1,2 -2,4 0,2 -1,3 -1,5 0,2 -3,26 12,70 37,103 137,323 193,403 8,11 16,14 20,26 8,20 -6,49 37,41 29,-5 503,-202 517,-211 44,-26 30,-12 55,-24l78 -38c83,-26 202,-99 277,-141 14,-12 14,-10 18,-26 -67,-42 -335,-75 -404,-90 -250,8 -446,-53 -715,-23 -28,3 -59,-2 -85,3zm302 589c16,54 342,195 399,246 41,37 229,231 257,268 87,114 149,108 278,104 116,-4 401,-6 493,-15 2,-33 -72,-338 -85,-395 -32,-142 163,-274 176,-312 1,-19 -9,-46 -12,-70 -4,-28 -3,-52 -5,-80l-32 -25c-1,-1 -3,-1 -4,-2 -5,-3 -211,-217 -223,-232 -33,-38 -67,-99 -74,-104 -17,6 -95,90 -114,105 -22,17 -43,30 -64,46 -74,62 -277,164 -365,200l-626 266zm1419 183c0,109 47,246 72,353 27,114 55,227 80,338 108,2 1072,-33 1101,-46 5,-24 -113,-86 -137,-103 -174,-124 -921,-613 -986,-768 -28,7 -52,46 -72,68 -34,36 -58,99 -58,158zm273 -436l-129 7c-6,26 2,101 8,126 24,99 267,270 365,337 166,113 331,237 492,350l303 220c19,13 0,9 29,10 -2,-131 -44,-429 -43,-494 0,-62 -21,-175 -26,-245 -10,-127 -32,-265 -30,-399 1,-56 -4,-112 -11,-168 -66,-6 -213,12 -283,19 -197,18 -324,34 -514,95 -19,6 -101,33 -111,41 -13,10 -16,22 -24,48 -8,24 -15,28 -26,52zm1013 -263c-6,50 18,161 17,181l43 576c3,39 15,61 12,94 -4,44 30,448 39,483 10,44 7,35 45,60l274 191c16,14 13,9 32,20 26,15 46,45 92,65l106 87c7,8 0,2 7,8l6 4c3,2 7,3 11,5 12,7 5,2 15,11 42,37 51,36 114,96 20,19 10,8 31,21 17,10 12,13 26,27l60 44c42,26 74,65 114,96 26,20 108,83 127,86 5,-41 -1,-96 0,-143l3 -298c2,-37 -6,-37 -6,-68 0,-37 10,-25 10,-68 0,-43 0,-107 7,-147 9,-52 8,-88 11,-141l18 -132c7,-44 6,-98 13,-147 6,-45 12,-90 14,-137 3,-55 -7,-97 -5,-142 1,-30 10,12 12,-55 2,-77 27,-312 22,-356 -3,-31 10,-223 18,-274 6,-33 10,-119 4,-147 -42,-7 -411,16 -486,25 -139,17 -340,29 -486,42 -56,5 -283,22 -320,31zm-847 2788c22,-4 185,-134 214,-156 82,-65 165,-62 275,-96 78,-25 585,-82 659,-86l131 -4c23,0 24,3 25,-19l-7 -179c-3,-117 -13,-240 -14,-356 0,-57 -4,-118 -8,-173 -3,-32 8,-55 -7,-77l-136 -94c-17,-15 -16,-9 -29,-18 -15,-10 1,0 -11,-10l-100 -67c-47,-34 -55,-52 -136,-48l-1066 45c-68,4 -63,-17 -38,107 11,54 99,479 118,525l95 370c25,118 29,214 36,335zm1337 -1043c0,167 15,343 16,518l6 177c6,3 5,3 13,6 7,2 4,2 12,3l222 31c92,12 728,90 769,80 -7,-46 -252,-247 -314,-286 -37,-23 -71,-61 -107,-87 -4,-3 -5,-3 -9,-6l-82 -69c-14,-11 -21,-15 -33,-25l-325 -262c-3,-3 -4,-4 -8,-8l-29 -23c-30,-27 -36,-25 -65,-50 -4,-4 1,0 -9,-7 -32,-22 -59,-60 -59,7zm-1330 1120c-4,80 29,348 54,417 31,5 161,-9 208,-10 77,-2 145,3 220,6 87,3 51,14 94,16 81,4 167,63 235,106l65 45c20,14 38,34 62,48l109 85c31,29 19,11 48,36l128 97c25,21 75,66 107,65 3,-148 -13,-471 -19,-638 -3,-106 -7,-213 -10,-320 -3,-105 -2,-215 -7,-320 -172,-9 -564,52 -745,83 -294,50 -269,66 -431,192 -41,32 -76,59 -117,92zm2092 403c6,-87 -50,-395 -56,-508 -12,-213 27,-180 -178,-194 -60,-4 -104,-17 -164,-24 -70,-7 -281,-38 -336,-31 -15,82 4,237 5,328l10 685c0,56 2,112 3,167 1,95 -11,121 37,137 68,22 85,1 141,-7 52,-7 20,12 140,-21 183,-50 314,-127 400,-290 70,-131 50,-86 19,-213 -6,-24 -4,-18 -20,-29zm-3034 -5662l1 94c31,7 70,3 104,4 334,16 875,241 1205,351 30,10 35,33 82,33 43,-54 44,-34 54,-69 5,-16 22,-30 37,-49l35 -44c32,-49 121,-149 126,-180 -521,-165 -982,-384 -1520,-478 -97,-12 -71,-1 -90,63 -33,111 -16,151 -25,206 -4,23 -10,45 -10,69zm23 900l-12 15c-1,1 -2,2 -2,3 -1,1 -2,2 -2,3 7,25 8,27 12,56 5,34 11,35 17,59 51,205 83,509 131,731 4,20 6,43 11,62 7,26 6,41 20,52 12,-4 122,-141 142,-164l143 -166c22,-26 20,-37 50,-60l121 -125c1,-1 2,-2 3,-3l13 -13c43,-40 101,-112 114,-122 56,-47 96,-111 144,-164 25,-28 45,-54 69,-82l311 -390c14,-17 27,-23 30,-48 -141,-132 -1225,-386 -1232,-386l-107 -7c-14,22 -6,109 -5,147 2,104 1,211 4,314l28 288zm-754 -127c28,6 52,15 80,20 31,5 59,7 89,16 91,20 464,105 531,96 1,-66 -15,-127 -8,-193 5,-54 -15,-73 -16,-178 -1,-67 -3,-133 -5,-199 -1,-39 10,-174 -8,-192 -1,-1 -475,-72 -507,-77 -24,-2 -25,1 -33,16 -26,46 -44,162 -55,217 -17,77 -75,416 -67,475zm-400 657c31,4 34,-2 64,9l256 22c29,1 174,11 185,23 32,33 -25,93 -5,220 32,18 50,13 91,20 30,5 60,14 90,19 159,27 318,54 479,81 38,6 61,26 94,15 1,-52 -34,-153 -41,-209 -42,-155 -82,-358 -92,-536 -2,-12 -26,-14 -27,-36 -1,-30 -2,-60 -4,-68 -22,-12 -68,-16 -97,-18l-410 -111c-91,-9 -204,-60 -244,-21 -25,24 -34,25 -59,56 -21,26 -32,31 -53,63 -33,49 -198,316 -212,374 -7,28 -26,69 -16,97zm619 358c-41,-1 -157,-25 -169,-34 -33,-71 -4,-150 5,-226 -32,-24 -243,-19 -339,-36l-118 -4c-4,20 -5,35 -8,55 -18,118 -102,653 -95,697 4,28 18,25 43,24 79,-3 641,3 641,3 12,-7 7,-37 7,-54 -1,-128 21,-208 28,-313 2,-31 5,-55 10,-83 4,-19 11,-30 -6,-30zm24 410c0,84 -9,64 89,80 56,9 342,72 397,100 27,14 43,40 102,-24 9,-9 51,-41 88,-79l34 -55 -80 -256c-16,-51 -75,-76 -127,-89 -131,-17 -279,-43 -418,-74 -60,-12 -44,0 -60,94 -18,102 -25,195 -25,302zm7903 -3662c-58,0 -124,17 -179,-5 -12,-5 -41,-11 -64,-17 -95,-25 -251,-65 -322,-76 -28,-7 -30,-16 -68,-18 -402,-23 -798,34 -1197,10 -25,0 -25,9 -26,32l0 189c1,47 -3,91 -2,136 1,39 11,17 -1,48 -6,15 -13,76 19,93l43 26c37,17 3,10 32,30l1492 899c33,27 29,60 84,27l95 -52c351,-209 371,-423 567,-678 13,-16 91,-172 95,-192 5,-28 11,-23 14,-61 24,-6 176,-78 220,-75 16,1 26,4 39,11 18,9 19,8 38,15 21,8 15,11 29,18 22,10 88,31 113,31 39,1 165,11 192,-4 14,-11 4,-46 0,-65 -6,-28 -1,-48 -10,-74 -8,-22 -8,-40 -12,-65 -1,-8 -5,-32 -5,-37 0,-23 2,-6 10,-30 -30,-29 -44,-229 -51,-274 -13,-88 -9,-48 -66,-15 -20,12 -11,13 -29,23l-32 20c-50,49 -110,93 -178,99 -76,7 -378,8 -415,19 -44,13 -354,13 -422,13zm1205 1879c17,-14 163,-662 156,-688 -8,-32 -7,-60 -16,-93 -48,-173 -84,-473 -113,-656 -120,0 -263,15 -373,-52 -41,-25 -59,-25 -110,-14 -4,1 -91,38 -99,42 -17,10 -8,4 -16,16l-83 168c-170,279 -314,575 -608,753 -10,6 -9,9 -21,16 -8,5 -17,8 -25,12 -105,60 -117,41 -86,91 21,34 153,331 159,348 8,21 15,20 23,45 21,62 44,41 178,45 161,4 147,-18 260,-26 55,-4 66,-21 117,-25 57,-4 70,-14 131,-16 157,-4 259,2 412,19 20,2 44,5 64,8 23,4 39,19 49,6zm-2088 -153c5,51 -3,255 -10,315 -4,33 -12,83 -14,106 -3,32 27,146 44,186 14,33 25,50 40,81 7,14 37,66 45,74 68,-5 25,-7 103,-30 291,-86 722,-3 857,-59 30,-12 67,-36 90,-56 14,-12 16,-8 24,-26 -309,-183 -305,-311 -464,-684l-70 -144c-12,-26 -12,-31 -42,-18l-72 32c-9,4 -13,9 -24,14 -120,48 -407,157 -481,199 -12,7 -14,5 -25,10zm-1944 955c31,4 8,-9 41,-21 51,-19 0,7 46,-22 15,-9 173,-69 208,-75l93 -11c70,-20 2,-8 90,-17 35,-4 58,-23 106,-28 49,-6 18,-10 54,-19 9,-2 121,-15 129,-15 25,1 33,6 63,7l611 23c76,9 493,18 542,-1 0,-29 -10,-30 -34,-73 -109,-205 -64,-273 -62,-461 0,-33 6,-186 2,-201 -17,-2 -13,4 -31,9 -446,222 -401,106 -784,4 -22,1 -43,4 -64,4 -188,-1 -327,-15 -452,32 -145,54 -259,48 -419,70 -61,6 -55,-26 -60,113l-29 257c-11,53 -49,192 -47,235 1,28 -3,66 -4,94l-1 83c3,15 1,8 4,14zm530 694c5,1 71,-11 94,-13 36,-3 73,-3 110,-2 65,0 136,10 195,39 28,14 16,-5 61,23l58 31c18,11 21,10 40,18 22,9 58,50 75,66 98,89 348,75 488,71 77,-2 424,7 464,-1 8,-35 -3,-524 -9,-575 -8,-63 3,-220 -2,-282 -2,-22 -6,-12 -8,-23 -3,-11 7,-41 -20,-82 -18,-27 -42,-68 -56,-94 -48,-2 -102,-3 -145,7l-677 -13c-26,-1 -53,-6 -74,-6 -17,0 -19,3 -31,3 -29,0 -51,-16 -99,-15 -85,1 -225,-13 -301,0 -25,4 -34,13 -60,18 -9,1 -23,2 -32,4 -29,6 -5,1 -29,14 -89,47 -83,-75 -71,217 3,85 15,547 32,592zm2344 -904c-359,-1 -368,-33 -756,54 -31,7 -22,2 -37,23 42,88 73,95 73,225l0 235c0,28 14,33 14,50 0,15 -6,45 -7,60l11 489c29,10 181,6 230,5 38,-1 30,-7 54,-21 18,-11 29,-17 46,-27 17,-10 35,-22 50,-29 15,-7 12,-4 25,-12 10,-6 9,-7 23,-15l96 -55c49,-25 59,-36 114,-36 20,0 39,-7 64,-8 521,-22 1071,-88 1577,-221 21,-6 43,-6 62,-11 22,-5 34,-13 57,-17 25,-5 45,1 65,-9 22,-11 38,-13 55,-22 12,-10 15,-78 17,-93 8,-45 23,-51 23,-90 -455,-217 -1023,-392 -1504,-600 -50,-16 -43,-3 -102,43 -24,18 -75,57 -101,62 -51,9 -91,21 -149,20zm-123 1011l-318 185c-26,8 -243,-8 -256,5 -10,11 -2,367 0,403 0,22 -4,44 -4,68l-1 256c0,44 -3,111 -9,152 -7,44 -46,139 -67,179 -8,16 -23,24 -19,66 15,11 2,2 19,9 12,5 8,2 17,8 44,32 50,17 102,56l69 36c17,8 21,14 33,20l222 101c65,16 -2,10 77,27 22,5 27,13 40,18 13,5 28,5 42,10 20,6 20,12 34,18 13,5 30,6 42,10 16,5 24,12 40,17 16,5 26,6 42,11 36,12 71,34 121,42 287,109 1452,612 1528,605 11,-83 14,-166 14,-241 0,-30 17,-47 15,-76 -9,-101 30,-348 27,-388 -9,-126 9,-235 11,-373 0,-40 5,-22 11,-43 3,-11 0,-158 -1,-187 -2,-111 8,-267 8,-392 0,-19 10,-58 10,-126l7 -264c6,-75 38,-276 49,-358 3,-22 9,-39 13,-55 4,-17 6,-42 9,-60 9,-59 -55,-6 -147,3 -373,111 -1788,270 -1782,257zm-2227 -61c1,119 3,237 1,356 -1,119 -7,236 -8,356 7,14 -6,6 17,16 11,5 14,3 26,5 24,3 38,2 64,3 229,8 1009,406 1308,562 35,25 20,9 44,24 15,9 25,18 47,16 12,-15 49,-109 58,-131 26,-62 28,-88 32,-160 14,-254 1,-508 5,-759 1,-55 8,-43 -144,-42 -154,1 -311,-7 -464,-3 -83,2 -35,-3 -80,-5 -181,-7 -244,-21 -358,-120l-26 -21c-10,-7 -5,-4 -11,-10 -22,-21 -47,-29 -77,-43 -26,-13 -46,-15 -73,-26 -106,-44 -242,-8 -360,-18zm4135 648c50,34 378,-5 481,-25 28,-5 102,-8 135,-10 151,-12 300,-24 451,-45 21,-2 47,2 63,-1 20,-41 -20,-587 -10,-661l-13 -361c-7,-22 -26,-23 -63,-47 -19,-12 -10,-13 -33,-25 -12,-6 -25,-10 -37,-20 -26,-21 8,-12 -33,-24 -24,-7 -56,-30 -76,-45l-26 -20c-15,-13 -25,-9 -42,-16 -16,-8 -15,-12 -33,-20 -23,-11 -19,-12 -35,-22 -29,-17 -69,-36 -101,-61l-175 -108c-1,-1 -4,-4 -6,-5 -10,-7 2,1 -10,-6l-86 -57c-19,-9 -23,-10 -32,10 -8,16 -7,22 -18,40 -10,16 -9,19 -18,40l-69 152c-9,30 -20,50 -32,78 -27,62 -11,20 -30,85 -9,32 4,14 -19,33 -46,38 -8,39 -36,136 -13,46 -84,528 -88,587 -10,143 -19,176 -19,318 0,65 -11,84 8,98zm1182 -512l2 194c0,41 -12,80 -3,120 10,41 -1,88 8,128 13,6 25,5 42,10 25,8 12,11 39,18 57,15 107,45 122,51 137,52 273,106 412,159 25,13 -1,17 42,17 8,-26 17,-45 25,-69 7,-18 3,-21 6,-41 2,-14 7,-22 11,-36 23,-94 60,-178 85,-293l67 -220c7,-28 6,-45 19,-76 21,-50 5,-50 17,-77 7,-16 8,-5 14,-33 3,-15 3,-24 8,-39 7,-23 26,-51 27,-64 3,-38 -1,-37 13,-74l36 -159c17,-76 2,-110 -28,-183 -14,-34 -6,-35 -40,-101 -22,-42 -39,-85 -60,-128l-176 -347c-9,-26 -41,-58 -54,-93 -14,-38 -2,-35 -31,-64 -25,-26 -54,-100 -76,-117 -20,9 -16,12 -26,36 -18,45 -61,144 -88,179 -12,16 -5,22 -17,51l-277 560c-10,10 2,-2 -9,7 -42,34 -30,42 -84,72 -57,32 -51,35 -47,145 2,41 3,215 10,235 6,18 10,64 2,82 -24,54 6,-26 9,81 1,23 1,45 1,68zm722 717c182,69 363,144 552,185 31,7 51,27 82,22 6,-13 4,-23 12,-36 12,-22 8,-2 19,-28 21,-53 38,-79 76,-123 20,-23 46,-71 83,-116l86 -160c17,-55 13,-16 28,-45 15,-30 12,-86 14,-95 3,-17 6,-31 6,-49 0,-20 -3,-26 2,-44 17,-61 -4,-23 17,-109l14 -150c0,-17 2,-24 1,-48 -4,-79 18,-247 21,-336 1,-40 -3,-30 -44,-33 -29,-2 -46,-7 -71,-9 -46,-5 -95,-3 -144,-8 -47,-5 -93,-14 -138,-16 -48,-2 -99,-4 -146,-8 -19,-2 -130,-19 -134,-17 -10,6 -28,105 -33,124l-99 367c-6,25 -10,40 -18,60l-69 240c-9,21 -8,41 -15,63l-37 121c-10,26 -14,22 -23,55 -5,19 -12,42 -14,65 -5,54 -27,81 -29,126zm-1827 -2981c292,102 653,153 959,233 58,15 -9,-29 102,22 16,7 35,10 55,13 33,5 28,5 46,24 71,-3 72,5 126,18 25,6 39,4 66,9 34,6 21,16 59,19 102,10 78,16 123,24 44,7 89,8 129,22 30,11 94,11 132,15 38,4 25,12 61,12 29,0 47,2 74,3 48,2 96,2 144,6l141 15c-3,-34 -66,-125 -88,-163l-39 -81c-6,-16 -2,-16 -11,-31 -13,-22 -22,-18 -34,-50l-82 -164c-10,-20 -16,-44 -24,-59l-83 -168c-11,-20 -15,-40 -25,-59 -9,-18 -19,-42 -27,-57 -17,-33 4,-14 -24,-50 -1,-1 -2,-2 -2,-3l-68 -183c-6,-13 -8,-10 -14,-28 -3,-10 -5,-22 -9,-33 -24,-58 -70,-206 -67,-266 6,-111 0,-201 15,-314 6,-49 11,-100 18,-149 4,-27 10,-47 13,-72 3,-21 1,-65 -16,-69l-1506 0c-1,23 -8,96 -8,99 4,16 10,8 10,39 1,81 -7,325 1,376 7,39 17,54 11,101 -8,66 -13,-20 -18,92 -9,184 -2,314 -41,508 -12,59 -49,204 -72,257 -10,23 -23,63 -25,91zm-554 1379c11,8 19,9 31,15 18,8 499,198 544,200 12,-65 153,-353 175,-421 11,-32 20,-36 30,-58 24,3 24,7 37,17 15,11 21,8 35,17 22,15 -4,6 29,18 22,8 20,4 23,29l34 0c9,26 -3,10 17,22 9,6 22,14 30,17 23,9 41,17 60,34 3,3 7,8 10,10 1,1 2,2 3,3l268 161c17,11 7,11 27,20l147 83c13,7 13,10 25,17 28,15 59,43 88,53 31,11 41,-12 58,-22 21,-13 10,-3 28,-19 10,-10 13,-13 23,-24 28,-33 50,-72 71,-113 41,-81 79,-165 119,-247 11,-22 19,-42 28,-62 15,-35 70,-168 89,-189 24,-26 8,-31 25,-64 17,-33 80,-159 89,-189 6,-23 1,-10 11,-30l68 -116c8,-20 11,-13 19,-28 6,-12 5,-19 14,-33 12,-18 13,-2 12,-31 -26,-20 -71,-14 -109,-21 -45,-8 -63,-21 -114,-23 -39,-2 -53,-17 -113,-23 -32,-3 -83,-15 -111,-24 -27,-9 -22,-18 -57,-8 -45,13 -17,-7 -95,-24 -26,-6 -29,-15 -50,-17 -43,-6 -19,14 -48,1 -161,-78 -932,-248 -1039,-253 -43,62 -200,513 -242,619 -9,25 -13,20 -21,42 -8,22 -18,66 -29,85 -8,14 -18,13 -25,32 -8,24 0,18 -15,43l-105 246c-1,4 -5,16 -6,19 -9,21 -8,10 -13,18 -11,15 -6,25 -12,46l-50 122c-11,18 -10,25 -13,49zm2327 -923c-20,31 -24,65 -49,95 -30,36 -6,22 -29,60 -11,17 -37,62 -35,76l234 414c10,16 10,27 18,40 9,16 11,13 22,36 32,72 2,49 34,82 30,31 41,65 64,114 29,62 88,184 102,249l29 89 562 41c28,2 63,7 90,8 34,1 26,-3 33,-70 6,-58 11,-130 14,-186l37 -570c4,-77 -196,-261 -226,-277 -17,-9 -15,-6 -29,-19 -10,-9 -19,-15 -28,-24 -20,-18 -37,-26 -60,-39 -60,-34 -40,-40 -140,-65 -22,-5 -61,0 -92,-6 -37,-7 -46,-17 -80,-20 -32,-3 -67,-2 -100,-3 -123,-5 -255,-34 -372,-25zm-10648 -1602c5,37 5,27 -15,50 -14,16 -11,22 -20,43 -18,40 -129,247 -114,265 86,97 741,171 893,164l1 -419c1,-42 5,-69 2,-110 -6,-85 8,-26 8,-104l5 -657c-39,-23 -31,-20 -66,-30 -29,-8 -38,-21 -70,-24 -58,59 -83,103 -143,171l-61 75c-36,50 -85,106 -116,156 -33,53 -144,195 -188,262 -14,21 -22,37 -37,58 -13,19 -24,33 -37,52 -14,22 -19,42 -43,50zm810 -741c-7,51 -3,485 -5,592 -1,48 -9,68 -9,110l-3 549c2,17 377,117 417,132 21,6 26,11 45,18 121,44 244,108 359,164 17,11 15,16 45,19l247 -344c11,-15 12,-13 25,-32 22,-33 115,-151 117,-175 -165,-132 -249,-260 -281,-474 -13,-74 -6,-176 -21,-236 -304,-104 -597,-199 -887,-316 -10,-7 -3,-9 -21,-11l-28 5zm1770 1408c23,-1 21,1 36,-11l89 -53c16,-10 47,-28 60,-35 20,-11 14,-7 28,-19 13,-10 17,-8 34,-18 14,-8 15,-9 31,-16 23,-11 14,-9 28,-19 13,-9 19,-7 33,-14l214 -126c31,-22 19,-6 45,-23l75 -46c78,-41 154,-93 216,-124 25,-12 21,-14 25,-22 14,-25 -9,-6 23,-25 20,-11 13,-10 27,-24l505 -1c37,-4 59,2 97,2 62,0 131,-9 194,-12 45,-2 57,3 94,8 83,11 320,-10 398,10 70,18 81,33 147,63 29,13 49,41 66,28 22,-24 10,-170 12,-214 2,-46 10,-197 -4,-227 -16,-15 -458,0 -537,-6 -90,-7 -171,-14 -261,-5 -30,3 -57,-3 -81,0 -114,13 -79,15 -144,39 -119,44 -114,24 -186,5 -186,-48 -508,-124 -764,-223 -16,-9 -20,-7 -35,-13l-51 -37c-76,-72 -145,-193 -218,-255 -45,4 -937,291 -944,297l-27 47c-12,23 11,174 14,207 21,209 91,270 218,399 16,14 122,108 125,110 158,101 322,169 420,353zm-2960 256c38,12 263,36 335,52l108 24c359,126 731,224 1083,371 20,6 33,6 51,12 20,6 28,15 52,20 39,-66 117,-160 168,-227 17,-19 27,-36 42,-58 14,-22 28,-36 43,-56 16,-21 23,-38 40,-59 20,-24 68,-79 72,-109 -121,-62 -282,-149 -409,-184 -134,-48 -269,-121 -412,-132 -11,-1 -23,-1 -34,-1 -28,0 -24,1 -48,-7 -15,-5 -63,1 -104,-3 -251,-22 -503,-54 -738,-144 -29,-11 -6,-16 -47,-19 -24,27 -204,472 -204,521zm3398 -434c24,25 67,23 99,29 107,24 274,38 356,140 8,12 25,24 33,36 12,17 16,15 28,35 50,83 76,221 144,296 32,35 61,57 81,108 14,35 29,52 32,95 2,37 13,63 16,110 4,69 8,282 15,327 12,71 288,17 341,26 31,3 156,-12 180,-20 68,-17 185,-14 395,-69 145,-39 305,-35 410,-31 20,1 38,5 52,9 388,105 313,133 769,-5 19,-6 23,-11 51,-17l138 -65c16,-6 24,-5 40,-13 88,-44 343,-139 409,-177 34,-20 43,-9 69,-39 -10,-21 -23,-28 -38,-40 -7,-5 -1,0 -8,-7l26 23 -1561 -940c-1,-1 -36,-32 -37,-33l-67 -38c-17,-8 -9,-5 -22,-15 -18,-13 -10,-6 -29,-13l-56 -28c-25,-14 -25,-17 -57,-22 -182,-27 -505,6 -709,-4 -157,-8 -314,1 -471,0 -76,0 -88,26 -146,54l-408 235c-22,16 -61,24 -76,52zm-400 220c-2,22 3,33 12,50 42,79 139,439 162,519 4,17 18,32 25,52 35,103 192,457 240,487 259,-91 446,-63 688,-118 12,-3 22,-8 24,-18 -3,-83 -7,-311 -18,-406 -4,-37 -45,-128 -62,-157 -28,-46 -40,-21 -97,-123 -31,-55 -41,-96 -67,-152 -111,-212 -315,-245 -548,-297 -25,-6 -43,-5 -55,-7l-89 47c-41,30 -48,26 -91,55 -40,27 -59,34 -89,52 -17,10 -23,7 -36,16z"/>
   </g>
  </g>
  <polygon class="fil1" points="0,0 14125,0 14125,9366 0,9366 "/>
 </g>
</svg>
