<?xml version="1.0" encoding="UTF-8"?>
<!DOCTYPE svg PUBLIC "-//W3C//DTD SVG 1.1//EN" "http://www.w3.org/Graphics/SVG/1.1/DTD/svg11.dtd">
<!-- Creator: CorelDRAW X8 -->
<svg xmlns="http://www.w3.org/2000/svg" xml:space="preserve" width="12in" height="9in" version="1.1" style="shape-rendering:geometricPrecision; text-rendering:geometricPrecision; image-rendering:optimizeQuality; fill-rule:evenodd; clip-rule:evenodd"
viewBox="0 0 12000 9000"
 xmlns:xlink="http://www.w3.org/1999/xlink">
 <defs>
  <style type="text/css">
   <![CDATA[
    .fil3 {fill:#39CA8F}
    .fil4 {fill:#B7D8EC}
    .fil2 {fill:#D7EBE6}
    .fil0 {fill:#E583AC}
    .fil1 {fill:#FEF9D4}
   ]]>
  </style>
 </defs>
 <g id="Layer_x0020_1">
  <metadata id="CorelCorpID_0Corel-Layer"/>
  <g id="_883156400">
   <path class="fil0" d="M5418 942c-17,2 -8,-4 -18,6l3 28 20 3c45,-7 378,-8 410,3 9,81 -13,282 6,339 -12,3 -10,8 -18,13 -64,-23 -88,-65 -189,-78 -73,-13 -223,-2 -305,0l-8 35c84,-5 216,-9 297,-1 60,5 71,14 113,37 24,13 76,43 100,50 16,142 -55,476 -49,563 31,20 262,24 318,41 -9,30 -29,33 -61,78 -51,70 -116,103 -117,192l-4 133c0,1 -1,3 -1,5l-3 10c-29,10 -214,-30 -493,68 -49,17 -75,13 -127,16 -27,1 -36,6 -63,9 -2,1 -4,1 -5,1 -61,8 -132,5 -197,7l-144 4c-27,-62 -11,-238 -48,-408l-28 42c19,52 31,293 28,359 -1,0 -4,-1 -5,1 -1,2 -4,1 -5,1l-120 16c-48,9 -101,0 -147,9 -30,6 -23,11 -54,15 -75,9 -140,36 -193,41 -30,21 -46,44 -70,66 -10,13 -19,21 -29,30 -34,32 -64,64 -89,105 -55,93 -33,101 -31,206 -55,6 -459,-14 -491,-21 -26,-6 -82,-14 -107,-23 -195,-67 -339,-75 -483,83 -178,194 -150,609 -162,623 -27,17 -229,41 -280,56 -68,21 -62,22 -108,61 -30,26 -63,102 -151,184 -19,19 -55,64 -77,90 -32,39 -82,152 -118,215 -43,2 -97,1 -126,-22l-31 19 14 8c11,8 -1,-1 12,8 34,26 9,21 26,102 16,72 -39,45 -102,172 -25,51 -22,105 -10,161l26 115c10,32 -2,23 25,34 21,-16 12,7 13,-24l-21 -90c-32,-122 -8,-211 91,-294 42,50 46,67 116,124l35 22c2,1 4,1 5,1 1,0 3,0 5,0l10 -3c12,-34 -11,-38 -11,-39l-100 -80c-23,-25 -71,-133 -46,-177 19,-10 247,-23 269,-15 13,20 76,364 81,414 -26,-7 -68,-42 -88,-57 -27,-21 -58,-48 -95,-60 0,43 -8,34 18,53l211 144c30,19 0,8 29,19 -23,55 -37,9 -54,128 -36,15 -367,32 -422,29 -9,-29 -10,-75 -39,-89 -14,11 -9,3 -13,18 -1,8 2,20 4,28 6,25 9,29 2,51 -31,8 -219,5 -270,6 -46,1 -91,5 -136,7 -52,2 -89,-5 -137,-7l-6 -14 -29 30c86,44 187,26 294,21 59,-2 260,-18 299,-12 29,64 86,342 103,426l98 431c-70,19 -319,59 -390,44 -12,-55 18,-485 15,-507 -6,-41 10,-17 -20,-29 -15,7 -18,-4 -17,56l-20 483 -487 -36c-69,-8 -131,-32 -114,19 24,9 228,28 265,28 82,0 173,18 265,20 97,1 174,3 271,-4 40,-3 237,-36 244,-34 33,58 63,326 66,407 -133,22 -266,7 -369,75l-90 72c-11,11 -16,20 -26,32l-114 111 -465 -3c-5,-24 -3,-73 -3,-98 1,-30 6,-41 -5,-68 -30,-73 9,-3 7,-80l0 -142c-7,-35 -1,-16 -19,-22 -23,18 -9,32 -19,102 -4,25 1,20 -1,42 -3,45 9,24 -1,92l1 172c-60,16 -270,-10 -312,8 2,45 84,30 172,30 164,0 499,-6 630,3 7,60 -42,311 10,358 -45,46 0,87 -12,123 -5,15 -218,163 -250,190l-141 111c-21,14 -33,27 -58,45 -37,27 -79,58 -115,84l-248 198c-34,26 -72,42 -79,77 19,9 25,13 44,-2l771 -597c65,-44 43,-38 149,-103l232 -142c35,-29 136,-85 171,-126l88 -81c34,-25 56,-48 105,-60 14,23 70,269 78,310l27 -7c-1,-67 -67,-291 -59,-310l31 -9c89,-5 203,-2 291,0 145,4 242,95 346,170 31,23 66,49 98,75 68,57 127,101 202,147l-50 93 31 14c15,-12 51,-63 60,-80 142,7 143,16 281,-22 86,-23 165,-65 227,-105 4,14 82,250 84,252l31 -3 -74 -231c-29,-67 -17,-51 42,-133 22,-30 61,-169 135,-172 41,-1 411,92 504,112 52,11 117,32 167,38 -1,163 -17,304 -29,464l35 10c8,-76 17,-150 23,-225 6,-76 4,-169 12,-239l362 67c135,30 634,122 753,125 104,2 184,-17 273,-60 27,-13 57,-24 65,-51 7,5 13,12 27,10l39 -22c34,-15 18,-1 72,-30 46,-24 92,-44 142,-65 56,-23 255,-112 292,-106 6,16 21,182 23,211l7 133c7,31 -12,17 16,22 31,5 22,-19 21,-47l-27 -318 125 -20c47,-6 95,-4 143,-6 95,-4 185,-13 278,-17 92,-4 195,-2 285,-12 25,-3 45,-8 64,-11 18,-2 197,-9 211,-1 19,11 11,8 20,38 18,62 4,50 19,92 7,18 0,-7 5,14 4,16 2,39 6,57 3,16 9,32 12,47l26 137c7,17 2,11 17,18 35,-14 19,-13 4,-93 -6,-37 -17,-73 -21,-106 -7,-51 -42,-176 -34,-216l169 -16 -5 -31c-33,-7 -53,-1 -86,2l-82 2c-35,-9 -7,-45 -27,-115 -3,-11 -7,-24 -10,-37 -5,-27 -4,-53 -7,-80 -4,-28 -13,-48 -16,-82l-52 -324c-15,-63 -3,-88 17,-144 22,-65 116,-390 133,-425l438 179c22,9 149,46 154,49 3,15 -14,296 -18,324 46,-7 36,-56 44,-141 3,-36 -9,-168 27,-171l411 94c40,8 118,11 144,36 16,28 1,65 40,56 7,-15 3,-31 2,-54 53,7 105,25 139,16l29 -12c17,-9 5,-2 13,-9 -116,-3 -292,-59 -378,-68 5,-78 85,-261 114,-339 22,-61 39,-110 49,-178 16,-110 2,-188 8,-222 21,-6 144,3 164,10 16,83 85,279 121,355 7,14 3,4 9,17 23,54 79,196 101,234 17,29 30,56 43,85 26,-2 21,-2 31,-18l-145 -318c-30,-73 -121,-278 -120,-350 38,-3 250,25 286,34l590 71c44,1 93,12 141,15 49,4 112,-5 151,17 6,36 -8,190 -17,228l37 -10c-1,-42 16,-124 17,-184 5,-208 34,-518 160,-678 52,-68 126,-182 159,-260 24,-59 26,-108 43,-169 88,4 324,109 413,103 -2,-54 3,-22 -87,-49 18,-53 95,-72 90,-129l-11 0c-20,6 -3,-5 -31,22l-73 70c-41,39 -11,21 -160,-17 -41,-10 -99,-28 -134,-40 -10,-43 28,-486 33,-570 3,-48 -1,-106 7,-147 14,-73 16,-402 37,-428l273 522c15,30 22,58 51,65 15,-43 -20,-82 -39,-116l-213 -413c-9,-18 -16,-31 -27,-50l-25 -52c-19,-36 -35,-64 -60,-95l-74 -83c17,4 32,12 48,18l167 46c32,7 88,20 119,24 54,7 90,27 112,-18 -61,-10 -131,-18 -190,-35 -33,-10 -60,-12 -93,-23 -30,-9 -62,-20 -90,-25l-160 -66c-26,-14 -127,-79 -137,-98 52,-14 418,-183 505,-218 30,-12 64,-32 84,-39 95,-33 75,-15 76,-53 -8,-5 -7,-14 -42,1l-123 52c-9,3 -23,9 -37,15l-58 27c-12,6 -2,3 -21,10l-96 40c-14,6 -10,3 -23,10 -56,31 -201,86 -258,117 -83,45 -81,22 -161,13 -43,-4 -72,-68 -102,-122 -37,-66 -37,-79 -79,-147 -11,-18 -26,-54 -37,-79 -84,-173 -277,-542 -292,-733 -25,-301 73,-546 78,-839l-261 1c11,52 -6,99 4,148l208 3c13,40 -9,46 -11,90 -2,39 -3,66 -21,93 -75,-1 -176,-44 -246,-31 -27,119 -37,216 -59,314l-36 198c-5,1 -20,6 -23,7 -49,10 -4,-11 -52,-8 -8,1 -18,4 -34,5 -40,2 -102,1 -141,-2 -4,-20 65,-409 81,-488 9,-41 12,-43 -27,-44l-89 496c-4,26 0,20 -13,33 -1,0 -65,10 -68,10 -72,-2 -70,-24 -179,-11 -13,1 -5,0 -18,0l-197 0c-10,1 -82,6 -89,0 -15,-21 -5,-152 -4,-191 0,-223 -8,-398 -10,-620l-35 1c5,210 25,1066 -16,1227 -28,115 -44,231 -91,333l-153 -19c-59,-14 -121,-9 -182,-13 -23,-44 -194,-1084 -190,-1166l196 -171c37,-29 62,-61 95,-92 17,-17 29,-28 46,-44 21,-20 36,-32 48,-55l-56 0c-27,40 -84,92 -123,130l-168 154c-15,13 -29,28 -49,24l-46 -307 -36 0c7,47 11,101 18,146 6,39 18,87 24,134 12,80 13,62 -86,138l-22 17c-6,4 -18,12 -26,16 -33,-131 -55,-320 -97,-450l-35 0c16,81 106,433 97,483 -42,20 -85,19 -142,20 -218,4 -154,88 -221,-242 -17,-86 -32,-174 -53,-260l-36 0c16,79 101,463 99,513 -126,16 -366,16 -490,2 -5,-115 6,-214 38,-321 0,-1 5,-17 7,-23 18,-76 23,-86 13,-170l-300 1c-1,31 -16,72 -27,102 -39,112 -15,41 -44,155l-30 171c-102,14 -236,-4 -344,11 -75,10 -947,-1 -1075,4z"/>
   <path class="fil1" d="M420 7295l2 708 11117 -29 -7 -2664c-154,2 -304,1 -452,7 -78,4 -147,7 -223,15 -46,5 -167,33 -200,32 -9,36 -45,381 -32,393 9,8 525,99 605,108 81,9 158,-1 232,6l4 36c-73,13 -244,-6 -320,-15 -50,-6 -266,-57 -284,-51 -10,6 -246,589 -248,619l143 106c14,12 19,18 32,28l326 247c24,20 47,34 70,53l94 -149c25,-43 147,-236 173,-249 10,31 9,42 -8,65 -11,16 -21,30 -34,49l-132 203c-20,34 -54,69 -56,111 21,11 35,26 57,44l160 110c19,14 19,2 19,37 -32,14 -63,-19 -123,-61 -108,-75 -219,-161 -320,-241 -35,-27 -70,-53 -106,-81 -20,-16 -35,-27 -51,-40 -52,-41 -247,-194 -271,-199l-341 330c-12,11 -15,15 -26,26 -17,18 -36,34 -51,52 -6,60 17,157 22,222 6,66 16,154 26,220 11,67 20,149 27,217 6,52 27,186 23,224l-33 0c-8,-37 -21,-161 -24,-207 -9,-166 -54,-360 -62,-522l-14 -88c-8,-19 5,-1 -8,-13l-205 -9c-7,32 -33,69 -50,97l-157 288c-42,98 -151,281 -206,393 -7,13 -17,38 -24,49 -15,22 -39,20 -39,-2l154 -297c20,-35 31,-61 51,-97 62,-108 72,-92 39,-214 -39,-140 -11,-131 -140,-97 -74,19 -133,65 -197,105l-398 247c-58,35 -112,65 -169,103l-458 252c-13,8 -30,21 -52,18 -43,-6 -18,0 -34,-20 37,-9 59,-23 90,-40l428 -237c38,-23 135,-87 166,-98 -8,-61 -45,-160 -62,-225l-201 -657c-19,-3 -151,46 -187,55 -75,20 -148,21 -219,37 3,19 -12,94 -11,126 1,150 14,233 -75,363 -42,61 -96,93 -162,129 -233,128 -450,164 -711,88 -77,-23 -148,-52 -208,-83 -99,-52 -69,-70 -210,-82l10 100c-51,-11 -39,-34 -42,-100 -174,8 -329,80 -492,127 -351,101 -513,-19 -831,-19 -160,1 -117,-8 -257,49 -169,69 -322,120 -523,78l-12 163c179,0 357,0 534,-1l1329 -3c63,0 221,7 271,-4l-5 -204 31 3 13 205c99,13 789,-10 830,2 25,7 47,68 61,93 24,44 87,107 79,156 -50,4 -46,-34 -69,-69 -17,-26 -76,-142 -94,-150l-804 1c-15,69 21,155 -2,224 -49,-6 -25,-13 -32,-159l-6 -54c-7,-23 -102,-11 -124,-11l-942 3c-179,-1 -357,1 -536,2 -86,0 -479,-9 -532,3 -14,58 -12,121 -11,180 0,44 9,41 -30,41l-8 -23c0,-1 1,-29 1,-32 2,-46 15,-132 8,-165 -64,-13 -617,-51 -647,-49l18 200c5,27 16,42 2,70 -52,-4 -26,-6 -40,-93 -4,-30 3,-60 -8,-88l-11 -14c-16,40 -8,109 -17,153 -7,37 -1,35 -34,39 -1,-2 -2,-7 -2,-6 0,1 -1,-5 -1,-6l3 -50c3,-26 7,-44 8,-69 1,-34 13,-94 18,-133 -23,0 -72,5 -95,8 -33,4 -71,3 -98,7 -46,8 -29,11 -92,11 -107,0 -447,48 -510,15 1,-40 23,-26 65,-25 101,1 90,-18 90,-111 0,-36 7,-76 -2,-110 -12,-4 -45,-18 -63,-26 -10,-4 -24,-9 -31,-14 -17,-12 0,4 -11,-13l-9 -17c-28,25 -34,25 -63,59 -31,37 -74,284 -60,315 29,34 30,20 47,71 9,26 15,84 12,101 -71,-10 -11,-54 -76,-135 -22,-27 -20,-36 -18,-80 4,-96 24,-208 64,-289 17,-33 40,-54 75,-75 -15,-10 2,-1 -16,-15 -123,-99 -268,-183 -428,-202 -115,-13 -181,16 -282,45 -56,17 -62,28 -102,63l-350 328c-32,29 -32,40 -84,84 -15,13 -32,27 -43,40 -39,46 -89,80 -128,124 -7,9 -11,13 -18,21 -7,6 -3,2 -10,9 -103,96 -49,88 -209,88 13,-32 66,-98 91,-121l150 -160c22,-19 53,-64 100,-106 19,-17 29,-37 46,-57 19,-22 35,-28 54,-50 38,-45 84,-93 131,-127 11,-8 4,-3 13,-12l59 -46c25,-21 166,-126 192,-133 -8,-41 -64,-287 -78,-310 -49,12 -71,35 -105,60l-88 81c-35,41 -136,97 -171,126l-232 142c-106,65 -84,59 -149,103l-771 597c-19,15 -25,11 -44,2 7,-35 45,-51 79,-77l248 -198c36,-26 78,-57 115,-84 25,-18 37,-31 58,-45l141 -111c32,-27 245,-175 250,-190 12,-36 -33,-77 12,-123 -52,-47 -3,-298 -10,-358 -131,-9 -466,-3 -630,-3 -88,0 -170,15 -172,-30 42,-18 252,8 312,-8l-1 -172c10,-68 -2,-47 1,-92 2,-22 -3,-17 1,-42 10,-70 -4,-84 19,-102 18,6 12,-13 19,22l0 142c2,77 -37,7 -7,80 11,27 6,38 5,68 0,25 -2,74 3,98l465 3 114 -111c10,-12 15,-21 26,-32l90 -72c103,-68 236,-53 369,-75 -3,-81 -33,-349 -66,-407 -7,-2 -204,31 -244,34 -97,7 -174,5 -271,4 -92,-2 -183,-20 -265,-20 -37,0 -241,-19 -265,-28 -17,-51 45,-27 114,-19l487 36 20 -483c-1,-60 2,-49 17,-56 30,12 14,-12 20,29 3,22 -27,452 -15,507 71,15 320,-25 390,-44l-98 -431c-17,-84 -74,-362 -103,-426 -39,-6 -240,10 -299,12 -107,5 -208,23 -294,-21 -82,44 -149,109 -196,185 -24,40 -59,77 -72,116 -16,47 -19,98 -40,146 -76,18 -65,-9 -92,-36 -5,-5 -15,-12 -19,-16 -49,12 -117,122 -139,169l-81 223c-14,61 34,705 5,981l-13 5c-1,10 -1,23 -4,32l-110 282c-30,53 -153,212 -190,231z"/>
   <path class="fil0" d="M1135 4715l17 -24c-7,-20 -58,-44 -77,-54 -32,-17 -57,-31 -88,-47 -38,-21 -141,-71 -167,-103 22,-18 200,-89 246,-108 89,-36 167,-65 252,-103l204 -106c138,-73 188,-157 224,-179 8,24 20,29 25,55l27 -19c-4,-21 -37,-85 -52,-135 -10,-35 -39,-119 -39,-155l35 -43c50,-68 262,-310 309,-356l469 -549c9,-12 22,-31 34,-45 18,-20 22,-28 36,-47 11,-15 24,-26 35,-42l107 -138c23,-32 48,-62 70,-92l70 -92c27,1 102,32 137,45 162,58 302,85 482,63 141,-17 321,-52 446,-108 25,-12 36,-16 61,-30 15,-9 48,-30 63,-35 10,17 18,46 30,65 21,-10 17,-6 27,-28 -73,-98 55,-73 152,-292l34 -88c13,-25 8,8 18,-33 -1,-2 -3,-6 -3,-5 -1,1 -3,-3 -4,-4 -34,-45 -7,-23 -38,-36 -14,41 -2,36 9,46 -14,16 -1,-1 -13,21 -7,12 -5,8 -10,22 -39,101 -72,156 -150,237 -5,5 -12,12 -17,16 -30,23 -28,-9 -57,-103l-51 -173c-9,-69 -56,-129 -60,-175 37,-22 242,-149 274,-143 5,1 35,10 55,15 15,3 45,11 57,16 -1,47 -38,190 -17,220 37,-2 29,-26 39,-96 5,-38 3,-85 18,-116 25,0 130,25 162,33 37,9 52,32 72,68 10,17 0,4 10,16 27,36 -21,-22 6,8l8 7 22 -18c-38,-117 -109,-114 -170,-128l-234 -53 348 -205c111,-61 74,-66 207,-69 96,-2 190,-5 285,0l13 -36c-46,2 -94,-3 -143,-2 -47,1 -94,2 -142,3 -112,1 -150,-3 -251,-24l-421 -134c-147,-45 -284,-95 -423,-138 -60,-19 -140,-46 -208,-68 -62,-19 -156,-43 -207,-70l-44 -316 -34 0 40 305c-58,-8 -366,-124 -429,-136 2,-32 8,-51 23,-74 1,-2 3,-3 3,-4 13,-21 15,-58 26,-90l-557 2 18 12c-11,28 -22,32 -40,54 -69,84 -155,193 -215,281 -36,53 -177,244 -199,290 -16,33 -28,41 -67,34 -54,-10 -118,-21 -172,-31 -57,-10 -112,-26 -162,-35l2 -285 692 -320 -83 0 -621 286c-53,28 -357,162 -383,163 -35,-45 -71,-151 -96,-206 -16,-37 -29,-66 -45,-104 -8,-19 -13,-36 -21,-56 -14,-32 -12,-36 -42,-33 -13,71 152,332 165,417 -24,16 -344,151 -361,139 -23,-15 -94,-237 -106,-275 -17,-51 -31,-93 -48,-146 -9,-29 -12,-47 -20,-75 -4,-12 -8,-24 -11,-36 -12,-41 9,-26 -28,-28 -20,22 -4,44 5,77 37,148 93,293 147,434 10,26 26,45 22,73 -12,8 -104,42 -126,51 -23,9 -42,17 -64,27 -4,2 -31,15 -31,15 -12,7 -17,19 -11,34 39,4 207,-92 254,-93 23,53 29,66 66,100 13,12 29,25 47,36 23,16 25,21 51,33 103,50 87,71 238,104 145,31 394,22 553,32 15,1 30,1 44,2l31 6c2,1 4,1 6,2l0 10c-3,32 -117,276 -135,362 -6,29 -12,23 -20,49 -5,15 -7,35 -11,49 -19,69 -35,151 -35,224 -1,29 21,80 -13,103 -42,18 -354,-71 -441,-48 -17,12 -8,1 -18,22 -15,32 -20,68 -28,103 -10,45 -23,98 -30,143l-29 229c-11,78 -31,115 -117,145 -49,17 -94,28 -149,26 -109,-3 -231,-85 -261,-82 -14,36 31,52 85,74 37,15 82,31 123,38 91,16 196,-3 268,-47 61,-37 27,-40 117,-23 49,9 341,62 375,82 44,27 64,-3 105,23 2,1 2,4 15,9 17,-10 16,9 19,-24 1,2 44,305 45,330 -51,1 -25,0 -62,-12 -22,-7 -44,-4 -65,-7 -57,-9 -126,-31 -184,-37 -46,-4 -26,2 -67,-13 -41,-14 -97,-10 -137,0 -36,-17 29,19 -12,-9 -12,-9 2,-2 -12,-8 -21,-8 -250,-10 -285,-18 -54,-11 -264,-8 -328,-8 9,51 36,33 95,34 39,2 79,3 118,5 14,35 -1,86 -6,121 -66,-4 -151,-20 -210,-2 6,20 -6,4 12,17 5,4 17,6 23,6 33,4 149,5 163,18 24,22 -15,79 -9,142 8,79 -31,225 -44,307 -9,54 -10,113 -18,161l-10 3c-37,6 -85,-9 -113,18 13,19 15,22 57,22 99,-2 58,-26 92,91 13,43 9,74 53,47 -1,-54 -47,-83 -33,-151l53 5c2,0 4,0 5,1 7,1 7,1 15,1l551 12c138,15 209,44 331,76 -64,85 -511,245 -651,302 -9,4 -11,4 -22,9 -23,9 0,0 -14,6l-63 32c-52,-37 -107,-173 -140,-231l-22 -62c-9,12 -6,5 -11,24 -14,53 57,170 85,212 14,22 24,49 42,67 -23,20 -56,31 -82,44l-223 102c-13,6 -13,1 -21,14 -3,6 -1,-4 -3,9 -2,12 1,16 2,19 37,-1 231,-94 284,-122 90,-45 90,-14 170,35 27,16 61,34 87,48 31,16 57,29 89,47 29,16 58,38 85,51z"/>
   <path class="fil1" d="M10656 5310c43,-18 362,-101 429,-118 37,-10 73,-15 106,-30 24,-11 59,-12 115,-27 75,-21 149,-36 225,-57l-12 -4591 -1324 3c-5,293 -103,538 -78,839 15,191 208,560 292,733 11,25 26,61 37,79 42,68 42,81 79,147 30,54 59,118 102,122 80,9 78,32 161,-13 57,-31 202,-86 258,-117 13,-7 9,-4 23,-10l96 -40c19,-7 9,-4 21,-10l58 -27c14,-6 28,-12 37,-15l123 -52c35,-15 34,-6 42,-1 -1,38 19,20 -76,53 -20,7 -54,27 -84,39 -87,35 -453,204 -505,218 10,19 111,84 137,98l160 66c28,5 60,16 90,25 33,11 60,13 93,23 59,17 129,25 190,35 -22,45 -58,25 -112,18 -31,-4 -87,-17 -119,-24l-167 -46c-16,-6 -31,-14 -48,-18l74 83c25,31 41,59 60,95l25 52c11,19 18,32 27,50l213 413c19,34 54,73 39,116 -29,-7 -36,-35 -51,-65l-273 -522c-21,26 -23,355 -37,428 -8,41 -4,99 -7,147 -5,84 -43,527 -33,570 35,12 93,30 134,40 149,38 119,56 160,17l73 -70c28,-27 11,-16 31,-22l11 0c5,57 -72,76 -90,129 90,27 85,-5 87,49 -89,6 -325,-99 -413,-103 -17,61 -19,110 -43,169 -33,78 -107,192 -159,260 -126,160 -155,470 -160,678 -1,60 -18,142 -17,184z"/>
   <path class="fil1" d="M418 6662c138,-118 46,-644 45,-852 -14,-30 5,-2 -31,-17 13,-8 25,-4 27,-7 0,-2 2,-1 3,-2 10,-124 15,-270 58,-378 40,-97 106,-217 174,-265l127 -93c25,-19 34,-32 58,-51 24,-19 34,-31 58,-52 12,-11 20,-14 32,-26l166 -204c-27,-13 -56,-35 -85,-51 -32,-18 -58,-31 -89,-47 -26,-14 -60,-32 -87,-48 -80,-49 -80,-80 -170,-35 -53,28 -247,121 -284,122 -1,-3 -4,-7 -2,-19 2,-13 0,-3 3,-9 8,-13 8,-8 21,-14l223 -102c26,-13 59,-24 82,-44 -18,-18 -28,-45 -42,-67 -28,-42 -99,-159 -85,-212 5,-19 2,-12 11,-24l22 62c33,58 88,194 140,231l63 -32c14,-6 -9,3 14,-6 11,-5 13,-5 22,-9 140,-57 587,-217 651,-302 -122,-32 -193,-61 -331,-76l-551 -12c-8,0 -8,0 -15,-1 -1,-1 -3,-1 -5,-1l-53 -5c-14,68 32,97 33,151 -44,27 -40,-4 -53,-47 -34,-117 7,-93 -92,-91 -42,0 -44,-3 -57,-22 28,-27 76,-12 113,-18l10 -3c8,-48 9,-107 18,-161 13,-82 52,-228 44,-307 -6,-63 33,-120 9,-142 -14,-13 -130,-14 -163,-18 -6,0 -18,-2 -23,-6 -18,-13 -6,3 -12,-17 59,-18 144,-2 210,2 5,-35 20,-86 6,-121 -39,-2 -79,-3 -118,-5 -59,-1 -86,17 -95,-34 64,0 274,-3 328,8 35,8 264,10 285,18 14,6 0,-1 12,8 41,28 -24,-8 12,9 40,-10 96,-14 137,0 41,15 21,9 67,13 58,6 127,28 184,37 21,3 43,0 65,7 37,12 11,13 62,12 -1,-25 -44,-328 -45,-330 -3,33 -2,14 -19,24 -13,-5 -13,-8 -15,-9 -41,-26 -61,4 -105,-23 -34,-20 -326,-73 -375,-82 -90,-17 -56,-14 -117,23 -72,44 -177,63 -268,47 -41,-7 -86,-23 -123,-38 -54,-22 -99,-38 -85,-74 30,-3 152,79 261,82 55,2 100,-9 149,-26 86,-30 106,-67 117,-145l29 -229c7,-45 20,-98 30,-143 8,-35 13,-71 28,-103 10,-21 1,-10 18,-22 87,-23 399,66 441,48 34,-23 12,-74 13,-103 0,-73 16,-155 35,-224 4,-14 6,-34 11,-49 8,-26 14,-20 20,-49 18,-86 132,-330 135,-362l0 -10c-2,-1 -4,-1 -6,-2l-31 -6c-14,-1 -29,-1 -44,-2 -159,-10 -408,-1 -553,-32 -151,-33 -135,-54 -238,-104 -26,-12 -28,-17 -51,-33 -18,-11 -34,-24 -47,-36 -37,-34 -43,-47 -66,-100 -47,1 -215,97 -254,93 -6,-15 -1,-27 11,-34 0,0 27,-13 31,-15 22,-10 41,-18 64,-27 22,-9 114,-43 126,-51 4,-28 -12,-47 -22,-73 -54,-141 -110,-286 -147,-434 -9,-33 -25,-55 -5,-77 37,2 16,-13 28,28 3,12 7,24 11,36 8,28 11,46 20,75 17,53 31,95 48,146 12,38 83,260 106,275 17,12 337,-123 361,-139 -13,-85 -178,-346 -165,-417 30,-3 28,1 42,33 8,20 13,37 21,56 16,38 29,67 45,104 25,55 61,161 96,206 26,-1 330,-135 383,-163l621 -286 -1688 5 16 6146z"/>
   <path class="fil2" d="M10656 5310l-37 10c-62,-1 -745,220 -886,303 -10,16 -5,16 -31,18 -41,18 -71,36 -114,56 -40,19 -80,32 -117,50 -8,7 4,0 -13,9l-29 12c-34,9 -86,-9 -139,-16 1,23 5,39 -2,54 -39,9 -24,-28 -40,-56 -26,-25 -104,-28 -144,-36l-411 -94c-36,3 -24,135 -27,171 -8,85 2,134 -44,141 -47,11 -133,104 -163,151 -6,9 -7,10 -13,20 -10,15 -15,22 -25,39 -144,263 -97,142 -177,235 -28,32 -73,145 -66,206l5 31c-10,24 17,289 -80,453 -67,113 -243,138 -364,176 -352,110 -663,-168 -857,-173l-1 -43c1,28 10,52 -21,47 -28,-5 -9,9 -16,-22l-7 -133c-2,-29 -17,-195 -23,-211 -37,-6 -236,83 -292,106 -50,21 -96,41 -142,65 -54,29 -38,15 -72,30l-39 22c-14,2 -20,-5 -27,-10 -8,27 -38,38 -65,51 -89,43 -169,62 -273,60 -119,-3 -618,-95 -753,-125l-362 -67c-8,70 -6,163 -12,239 -6,75 -15,149 -23,225l-35 -10c-173,-37 -563,-106 -745,-78l-31 3c-2,-2 -80,-238 -84,-252 -62,40 -141,82 -227,105 -138,38 -139,29 -281,22 -9,17 -45,68 -60,80l-31 -14 50 -93c-75,-46 -134,-90 -202,-147 -32,-26 -67,-52 -98,-75 -104,-75 -201,-166 -346,-170 -88,-2 -202,-5 -291,0l-31 9c-8,19 58,243 59,310l-27 7c-26,7 -167,112 -192,133l-59 46c-9,9 -2,4 -13,12 -47,34 -93,82 -131,127 -19,22 -35,28 -54,50 -17,20 -27,40 -46,57 -47,42 -78,87 -100,106l-150 160c-25,23 -78,89 -91,121 160,0 106,8 209,-88 7,-7 3,-3 10,-9 7,-8 11,-12 18,-21 39,-44 89,-78 128,-124 11,-13 28,-27 43,-40 52,-44 52,-55 84,-84l350 -328c40,-35 46,-46 102,-63 101,-29 167,-58 282,-45 160,19 305,103 428,202 18,14 1,5 16,15 -35,21 -58,42 -75,75 -40,81 -60,193 -64,289 -2,44 -4,53 18,80 65,81 5,125 76,135 3,-17 -3,-75 -12,-101 -17,-51 -18,-37 -47,-71 -14,-31 29,-278 60,-315 29,-34 35,-34 63,-59l9 17c11,17 -6,1 11,13 7,5 21,10 31,14 18,8 51,22 63,26 9,34 2,74 2,110 0,93 11,112 -90,111 -42,-1 -64,-15 -65,25 63,33 403,-15 510,-15 63,0 46,-3 92,-11 27,-4 65,-3 98,-7 23,-3 72,-8 95,-8 -5,39 -17,99 -18,133 -1,25 -5,43 -8,69l-3 50c0,1 1,7 1,6 0,-1 1,4 2,6 33,-4 27,-2 34,-39 9,-44 1,-113 17,-153l11 14c11,28 4,58 8,88 14,87 -12,89 40,93 14,-28 3,-43 -2,-70l-18 -200c30,-2 583,36 647,49 7,33 -6,119 -8,165 0,3 -1,31 -1,32l8 23c39,0 30,3 30,-41 -1,-59 -3,-122 11,-180 53,-12 446,-3 532,-3 179,-1 357,-3 536,-2l942 -3c22,0 117,-12 124,11l6 54c7,146 -17,153 32,159 23,-69 -13,-155 2,-224l804 -1c18,8 77,124 94,150 23,35 19,73 69,69 8,-49 -55,-112 -79,-156 -14,-25 -36,-86 -61,-93 -41,-12 -731,11 -830,-2l-13 -205 -31 -3 5 204c-50,11 -208,4 -271,4l-1329 3c-177,1 -355,1 -534,1l12 -163c201,42 354,-9 523,-78 140,-57 97,-48 257,-49 318,0 480,120 831,19 163,-47 318,-119 492,-127 3,66 -9,89 42,100l-10 -100c141,12 111,30 210,82 60,31 131,60 208,83 261,76 478,40 711,-88 66,-36 120,-68 162,-129 89,-130 76,-213 75,-363 -1,-32 14,-107 11,-126l4 -34c19,-9 163,-25 203,-34 22,-4 68,-22 93,-31 46,-16 56,-24 91,-25l-30 -98c-8,-19 -12,-99 -12,-123 2,-76 0,-168 10,-243l34 -14c46,-8 100,-28 151,-36 56,-9 109,-16 164,-23 116,-15 209,-34 319,-59 14,-13 10,-10 30,-13 25,55 29,131 59,185 24,-5 27,-10 46,-24 106,-79 132,-65 256,-211l-139 -29c44,-41 104,-9 166,-8l47 -51 -20 -44 31 -14 26 41c136,2 270,1 406,8 65,3 129,7 194,12 48,3 153,19 193,15 18,-43 18,-154 23,-207 18,-155 -4,-178 56,-181 33,1 154,-27 200,-32 76,-8 145,-11 223,-15 148,-6 298,-5 452,-7l-1 -232c-76,21 -150,36 -225,57 -56,15 -91,16 -115,27 -33,15 -69,20 -106,30 -67,17 -386,100 -429,118z"/>
   <path class="fil0" d="M9283 5885c9,27 5,28 10,51l45 147 -296 183c-3,2 -18,10 -22,12 -6,3 -16,8 -21,11l-13 8c-59,44 -275,170 -307,154 -7,-9 -27,-78 -30,-98 -18,-90 6,-266 0,-350l-34 14c-10,75 -8,167 -10,243 0,24 4,104 12,123l30 98c-35,1 -45,9 -91,25 -25,9 -71,27 -93,31 -40,9 -184,25 -203,34l-4 34c71,-16 144,-17 219,-37 36,-9 168,-58 187,-55l201 657c17,65 54,164 62,225 -31,11 -128,75 -166,98l-428 237c-31,17 -53,31 -90,40 16,20 -9,14 34,20 22,3 39,-10 52,-18l458 -252c57,-38 111,-68 169,-103l398 -247c64,-40 123,-86 197,-105 129,-34 101,-43 140,97 33,122 23,106 -39,214 -20,36 -31,62 -51,97l-154 297c0,22 24,24 39,2 7,-11 17,-36 24,-49 55,-112 164,-295 206,-393l157 -288c17,-28 43,-65 50,-97l205 9c13,12 0,-6 8,13l14 88c8,162 53,356 62,522 3,46 16,170 24,207l33 0c4,-38 -17,-172 -23,-224 -7,-68 -16,-150 -27,-217 -10,-66 -20,-154 -26,-220 -5,-65 -28,-162 -22,-222 15,-18 34,-34 51,-52 11,-11 14,-15 26,-26l341 -330c24,5 219,158 271,199 16,13 31,24 51,40 36,28 71,54 106,81 101,80 212,166 320,241 60,42 91,75 123,61 0,-35 0,-23 -19,-37l-160 -110c-22,-18 -36,-33 -57,-44 2,-42 36,-77 56,-111l132 -203c13,-19 23,-33 34,-49 17,-23 18,-34 8,-65 -26,13 -148,206 -173,249l-94 149c-23,-19 -46,-33 -70,-53l-326 -247c-13,-10 -18,-16 -32,-28l-143 -106c2,-30 238,-613 248,-619 18,-6 234,45 284,51 76,9 247,28 320,15l-4 -36c-74,-7 -151,3 -232,-6 -80,-9 -596,-100 -605,-108 -13,-12 23,-357 32,-393 -60,3 -38,26 -56,181 -5,53 -5,164 -23,207 -40,4 -145,-12 -193,-15 -65,-5 -129,-9 -194,-12 -136,-7 -270,-6 -406,-8l-26 -41 -31 14 20 44 -47 51c-62,-1 -122,-33 -166,8l139 29c-124,146 -150,132 -256,211 -19,14 -22,19 -46,24 -30,-54 -34,-130 -59,-185 -20,3 -16,0 -30,13z"/>
   <path class="fil3" d="M5083 1257l-13 36c-12,12 -92,145 -198,251 -33,33 -70,81 -113,113l-125 91 -22 18c-129,101 -143,162 -234,284 -43,58 -68,86 -130,128 -53,37 -88,91 -130,127 -10,22 -6,18 -27,28 -15,50 -77,105 -118,132 -190,125 -412,85 -649,98 -79,4 -155,12 -233,20 -22,3 -92,10 -107,16 -39,13 -336,294 -388,362 -20,27 -34,46 -51,71 -10,15 -19,23 -29,36 -11,14 -16,22 -28,36 -38,48 -79,78 -115,137 -51,84 -165,164 -276,344 -68,111 -58,174 -174,321 -23,29 -99,109 -125,121l-27 19 -99 60c-117,57 -42,10 -144,102l-85 70c-94,85 -100,81 -172,221 -30,56 -85,129 -119,192l-17 24 -166 204c-12,12 -20,15 -32,26 -24,21 -34,33 -58,52 -24,19 -33,32 -58,51l-127 93c-68,48 -134,168 -174,265 -43,108 -48,254 -58,378 -1,1 -3,0 -3,2 -2,3 -14,-1 -27,7 36,15 17,-13 31,17 1,208 93,734 -45,852l2 633c37,-19 160,-178 190,-231l110 -282c3,-9 3,-22 4,-32l13 -5c29,-276 -19,-920 -5,-981l81 -223c22,-47 90,-157 139,-169 4,4 14,11 19,16 27,27 16,54 92,36 21,-48 24,-99 40,-146 13,-39 48,-76 72,-116 47,-76 114,-141 196,-185l29 -30c11,-20 43,-43 59,-61l203 -217c36,-42 171,-208 181,-233 54,18 40,19 81,-11 4,-37 2,-43 -18,-61 12,-12 24,-30 36,-48 26,-38 11,-19 16,-64l31 -19c11,-19 14,-9 33,-29l58 -65c67,-80 45,-74 134,-162 77,-76 121,-255 165,-319 5,-8 21,-31 27,-38 37,-36 81,-108 128,-161 12,-14 2,-1 13,-19l88 -119c42,-52 27,-47 60,-56 228,-65 140,-71 223,-261 27,-63 50,-105 104,-135 96,-53 599,-25 846,-117 38,-14 47,-30 77,-45 26,-13 56,-25 82,-34 63,-22 147,-27 214,-27 24,-22 40,-45 70,-66 94,-100 201,-118 295,-175 54,-33 87,-61 117,-122 18,-36 60,-131 84,-145l28 -42c23,-43 159,-96 204,-148 36,-42 149,-148 160,-186 -27,18 -101,68 -139,72 -93,10 -341,223 -369,283 -27,55 -38,97 -70,149 -116,191 -222,194 -425,232l-299 141c-504,209 -635,-77 -1030,269 -120,106 -318,329 -414,464 -61,85 -114,171 -165,273 -57,115 -112,170 -183,255l-211 228c-10,10 -104,109 -106,114 -15,34 8,89 -40,179 -58,108 -262,335 -348,418 -19,19 -31,38 -53,55l-33 -37c48,-44 92,-73 133,-118 39,-43 69,-82 107,-138 80,-117 168,-208 144,-337 -91,-8 -146,35 -182,80 -38,46 -71,96 -105,153 -66,110 -112,220 -175,334 -96,177 -122,166 -229,287 -36,41 -75,96 -109,149 -33,53 -59,107 -94,157 -66,94 -112,264 -110,405 2,171 -4,334 -6,503 -1,151 2,336 -56,459 -31,65 -151,266 -200,307 -5,-43 0,-108 1,-153 2,-88 -6,-58 35,-112 183,-249 51,-756 94,-1084 27,-210 152,-473 286,-616 48,-52 96,-111 144,-159 132,-129 132,-161 209,-249 81,-94 58,-111 116,-180 20,-24 41,-59 59,-90 64,-114 103,-184 228,-229 33,-12 96,-20 117,-31 53,-29 172,-162 233,-219 28,-25 51,-46 76,-73 50,-55 91,-100 136,-167 72,-104 131,-248 226,-381 23,-32 42,-53 66,-81 119,-142 235,-263 364,-391 92,-91 217,-178 378,-222 231,-64 372,-33 540,-68 80,-16 158,-46 228,-75 57,-24 158,-81 212,-86 205,-16 313,-85 393,-214 37,-60 70,-132 94,-209 45,-143 10,-115 -11,-243 99,7 175,5 253,-37 116,-64 363,-322 410,-438l8 -35c19,-92 -13,-183 -78,-230 -72,-53 11,-43 -35,-50 -7,52 -42,100 -65,142 -16,29 -25,40 -36,68 -10,23 -20,48 -30,71z"/>
   <path class="fil2" d="M4835 2096c37,170 21,346 48,408l144 -4c65,-2 136,1 197,-7 1,0 3,0 5,-1 27,-3 36,-8 63,-9 52,-3 78,1 127,-16 279,-98 464,-58 493,-68l3 -10c0,-2 1,-4 1,-5l4 -133c1,-89 66,-122 117,-192 32,-45 52,-48 61,-78 -56,-17 -287,-21 -318,-41 -6,-87 65,-421 49,-563 -24,-7 -76,-37 -100,-50 -42,-23 -53,-32 -113,-37 -81,-8 -213,-4 -297,1 -47,116 -294,374 -410,438 -78,42 -154,44 -253,37 21,128 56,100 11,243 -24,77 -57,149 -94,209 -80,129 -188,198 -393,214 -54,5 -155,62 -212,86 -70,29 -148,59 -228,75 -168,35 -309,4 -540,68 -161,44 -286,131 -378,222 -129,128 -245,249 -364,391 -24,28 -43,49 -66,81 -95,133 -154,277 -226,381 -45,67 -86,112 -136,167 -25,27 -48,48 -76,73 -61,57 -180,190 -233,219 -21,11 -84,19 -117,31 -125,45 -164,115 -228,229 -18,31 -39,66 -59,90 -58,69 -35,86 -116,180 -77,88 -77,120 -209,249 -48,48 -96,107 -144,159 -134,143 -259,406 -286,616 -43,328 89,835 -94,1084 -41,54 -33,24 -35,112 -1,45 -6,110 -1,153 49,-41 169,-242 200,-307 58,-123 55,-308 56,-459 2,-169 8,-332 6,-503 -2,-141 44,-311 110,-405 35,-50 61,-104 94,-157 34,-53 73,-108 109,-149 107,-121 133,-110 229,-287 63,-114 109,-224 175,-334 34,-57 67,-107 105,-153 36,-45 91,-88 182,-80 24,129 -64,220 -144,337 -38,56 -68,95 -107,138 -41,45 -85,74 -133,118l33 37c22,-17 34,-36 53,-55 86,-83 290,-310 348,-418 48,-90 25,-145 40,-179 2,-5 96,-104 106,-114l211 -228c71,-85 126,-140 183,-255 51,-102 104,-188 165,-273 96,-135 294,-358 414,-464 395,-346 526,-60 1030,-269l299 -141c203,-38 309,-41 425,-232 32,-52 43,-94 70,-149 28,-60 276,-273 369,-283 38,-4 112,-54 139,-72 -11,38 -124,144 -160,186 -45,52 -181,105 -204,148z"/>
   <path class="fil1" d="M5562 5189c11,466 -14,811 177,1255 36,86 81,174 110,264 9,28 24,57 34,88 12,32 18,64 31,92 2,4 2,4 4,9l10 41c3,34 -5,22 10,55 50,6 84,-8 129,-16 40,-8 71,-22 106,-42l74 -37c34,-15 16,9 55,-21 1,-1 6,-5 7,-6 7,-5 4,-3 13,-7 53,-27 162,-68 202,-95 18,-11 -9,-1 29,-10l166 -61c24,-8 12,-8 25,-13 10,-4 4,-2 16,-4 69,-11 57,14 16,-226 -27,-153 -52,-303 -57,-461l-17 -208c-7,-53 -9,-27 -130,-18 -48,3 -106,-1 -152,6 -37,7 -99,14 -145,8 -51,-5 -56,-40 -63,-91 -23,-166 -34,-393 -81,-541 -103,-4 -466,24 -569,39z"/>
   <path class="fil1" d="M6140 978l-247 -2c-36,5 -24,48 -23,125l0 197c-2,24 -4,34 -1,61l399 246c21,16 43,28 67,42l99 63c276,139 143,173 398,59l300 -134c51,-21 101,-45 152,-66 170,-71 462,-199 618,-254 65,-24 109,19 167,39 39,13 160,19 201,5 12,-27 -38,-281 -46,-348 -5,-38 -8,-87 -17,-124l-162 120c-65,41 -179,23 -265,32 -118,12 -466,30 -572,13 -30,-5 -30,-10 -59,-15l-176 -42c-166,-39 -76,-35 -266,-35l-219 4c-42,5 -16,19 -62,12 -33,-4 -29,-3 -67,-1l-219 3z"/>
   <path class="fil1" d="M5083 1257c10,-23 20,-48 30,-71 11,-28 20,-39 36,-68 23,-42 58,-90 65,-142 -198,-21 -188,69 -307,39 -42,-10 -83,-33 -127,-49 -39,-15 -98,-30 -142,-38 -50,-9 -92,-15 -143,-30 -33,-10 -32,-5 -69,-22l-106 -37c-2,0 -6,-3 -8,-4l-142 -110c-21,-29 -7,-2 -3,-36 31,9 59,48 89,74 27,23 98,55 134,65l20 5c27,11 -22,0 38,15l60 23c26,11 -11,6 17,3 24,-3 -11,-17 29,0 18,8 18,12 24,26 36,-34 56,-4 113,9l119 35c274,110 80,-8 421,-2 -10,-64 26,-97 14,-151 -26,-9 -47,3 -65,12l-99 26c-18,3 -27,3 -45,4 -34,0 -99,3 -131,-10l-8 -4c-41,-17 -20,8 -90,-19 -42,-17 -36,-7 -108,-40 -39,-18 -11,3 -43,-24l-127 -86c-33,-24 -34,-5 -71,-18 -35,-12 12,-3 -64,-19 -44,-9 -51,-24 -71,-32 -6,-3 -10,-3 -15,-5 -25,-9 -10,-4 -30,-16 -29,-17 -35,-12 -39,-54l-995 2 44 316c51,27 145,51 207,70 68,22 148,49 208,68 139,43 276,93 423,138l421 134c101,21 139,25 251,24 48,-1 95,-2 142,-3 49,-1 97,4 143,2z"/>
   <path class="fil1" d="M9680 4170l131 50c54,23 87,41 142,57 2,1 8,2 10,3 53,19 201,91 237,92l178 -634c27,-99 56,-185 77,-296 19,-98 -116,-351 -156,-423 -37,-66 -67,-138 -101,-196l-112 -189c-31,23 -206,439 -241,510 -43,89 -73,157 -163,211 -47,28 -18,164 -12,215 7,49 0,69 0,113 0,26 6,23 5,52l2 181c1,66 -5,197 3,254z"/>
   <path class="fil1" d="M2506 1602l189 36c198,74 220,80 411,170 25,11 47,27 74,37 30,-19 54,-71 79,-103 14,-16 28,-35 39,-52l118 -166c28,-45 60,-72 78,-114 -16,-18 -72,-53 -101,-91l-42 -55c-92,-133 -83,-245 -97,-406 -35,-19 -139,-51 -181,-63l-463 -163c-29,-12 -69,-35 -91,-29 -5,119 1,435 -6,500 -14,137 -12,353 -7,499z"/>
   <path class="fil1" d="M8875 494l-247 0c-12,23 -27,35 -48,55 -17,16 -29,27 -46,44 -33,31 -58,63 -95,92l-196 171c-4,82 167,1122 190,1166 61,4 123,-1 182,13l153 19c47,-102 63,-218 91,-333 41,-161 21,-1017 16,-1227z"/>
   <path class="fil1" d="M9934 491l-1024 2c2,222 10,397 10,620 -1,39 -11,170 4,191 7,6 79,1 89,0l197 0c13,0 5,1 18,0 109,-13 107,9 179,11 3,0 67,-10 68,-10 13,-13 9,-7 13,-33l89 -496c39,1 36,3 27,44 -16,79 -85,468 -81,488 39,3 101,4 141,2 16,-1 26,-4 34,-5 48,-3 3,18 52,8 3,-1 18,-6 23,-7l36 -198c22,-98 32,-195 59,-314 70,-13 171,30 246,31 18,-27 19,-54 21,-93 2,-44 24,-50 11,-90l-208 -3c-10,-49 7,-96 -4,-148z"/>
   <path class="fil1" d="M6740 3040c15,68 55,61 59,174 2,55 -12,186 11,221 38,29 120,-43 300,92 18,13 33,29 50,46l38 33c9,8 4,3 14,13 137,141 7,94 270,81 26,-1 66,1 90,-3 40,-7 11,-12 90,-16 63,-3 128,3 190,-11 35,-9 52,-11 88,-11 42,-1 64,7 87,-14 7,-40 -108,-361 -131,-424l-88 -260c-15,-22 -52,-25 -96,-44 -14,-6 -33,-13 -51,-21 -92,-42 -71,28 -173,66 -79,30 -177,20 -265,17 -157,-5 -236,-23 -381,23 -35,11 -68,25 -102,38z"/>
   <path class="fil1" d="M7242 5909c-5,50 -40,20 -71,16 -48,-7 -45,-1 -86,-26 -51,-31 -57,-85 -66,-164 -16,-147 -11,-292 -11,-440l-290 8 21 471c13,144 12,316 38,454 30,9 774,-127 807,-135 -2,-35 -17,-72 -22,-112 -5,-43 -5,-77 -15,-120 -45,-194 -73,-240 -92,-449 -8,-91 4,-183 -3,-265 -21,-14 -383,-137 -388,-137 -25,98 -26,428 -19,538 7,112 -7,310 82,334 24,6 100,18 115,27z"/>
   <path class="fil1" d="M6881 7027l1 43c194,5 505,283 857,173 121,-38 297,-63 364,-176 97,-164 70,-429 80,-453l-169 16c-8,40 27,165 34,216 4,33 15,69 21,106 15,80 31,79 -4,93 -15,-7 -10,-1 -17,-18l-26 -137c-3,-15 -9,-31 -12,-47 -4,-18 -2,-41 -6,-57 -5,-21 2,4 -5,-14 -15,-42 -1,-30 -19,-92 -9,-30 -1,-27 -20,-38 -14,-8 -193,-1 -211,1 -19,3 -39,8 -64,11 -90,10 -193,8 -285,12 -93,4 -183,13 -278,17 -48,2 -96,0 -143,6l-125 20 27 318z"/>
   <path class="fil1" d="M2901 2300l62 27c21,9 45,16 67,23l100 33c12,3 23,3 39,5 56,5 45,24 155,22 19,-1 56,-4 84,-4 67,-1 101,3 167,-13 27,-7 53,-6 78,-9 22,-4 47,-12 72,-17 34,-7 26,-12 72,-22 85,-18 152,-53 219,-95 15,-9 18,-9 30,-22l-77 -248c-46,-156 -75,-259 -192,-381 -15,-16 -28,-29 -43,-41l-96 -64c-11,-6 -100,-57 -110,-60l-292 406c-14,20 -10,12 -24,28 -18,20 -21,34 -36,54l-198 267c-24,36 -64,78 -77,111z"/>
   <path class="fil1" d="M4894 6184l-35 152c-12,52 -24,100 -38,149 -14,49 -23,101 -35,151 -19,75 -28,87 -6,163 114,26 732,146 828,157 56,6 257,54 289,32 7,-10 -38,-148 -44,-168l-209 -522c-215,-10 -145,-269 -225,-362 -21,40 -18,138 -21,191 -5,99 -9,111 -116,101 -117,-12 -278,-44 -388,-44z"/>
   <path class="fil1" d="M2283 6315c8,108 13,231 44,329 130,-13 359,-23 483,26 41,16 76,45 113,68 95,58 142,110 199,149 17,12 35,26 47,37l160 112 -33 -1014c-144,-12 -433,37 -584,65 -235,42 -216,57 -384,190 -19,16 -26,19 -45,38z"/>
   <path class="fil1" d="M5418 942c128,-5 1000,6 1075,-4 108,-15 242,3 344,-11l30 -171c29,-114 5,-43 44,-155 11,-30 26,-71 27,-102l-1161 3c-7,38 -4,14 -48,56l-217 175c-51,47 -40,29 -47,54l-47 155z"/>
   <path class="fil1" d="M8871 3329c28,19 72,29 108,46 37,17 73,31 110,45l79 785c28,6 410,-34 475,-39 8,-49 -14,-770 -23,-806 -15,-20 -125,-81 -151,-96l-369 -224c-30,-18 -62,-42 -92,-50 -25,51 -138,293 -137,339z"/>
   <path class="fil1" d="M9622 2258c246,64 422,103 668,123 85,7 171,14 255,19 -4,-27 -66,-119 -95,-180l-92 -179c-22,-41 -39,-80 -59,-121 -6,-13 -9,-18 -17,-29 -14,-21 -23,-57 -40,-96 -54,-128 -114,-242 -150,-392 -8,-32 -4,-53 -30,-58 -9,-1 -75,-2 -89,-2 -249,-1 -146,-39 -230,310 -32,133 -64,314 -92,449 -9,46 -27,108 -29,156z"/>
   <path class="fil1" d="M8178 6583c-7,-61 38,-174 66,-206 80,-93 33,28 177,-235 10,-17 15,-24 25,-39 6,-10 7,-11 13,-20 30,-47 116,-140 163,-151 4,-28 21,-309 18,-324 -5,-3 -132,-40 -154,-49l-438 -179c-17,35 -111,360 -133,425 -20,56 -32,81 -17,144l52 324c3,34 12,54 16,82 3,27 2,53 7,80 3,13 7,26 10,37 20,70 -8,106 27,115l82 -2c33,-3 53,-9 86,-2z"/>
   <path class="fil1" d="M2537 5192l49 321c6,36 6,78 12,109 29,141 40,382 54,437 86,-4 220,-33 312,-46 407,-58 331,53 328,-217l-18 -380c-3,-62 8,-54 -115,-137 -2,-1 -3,-2 -4,-3 -1,0 -3,-1 -4,-2 -2,-1 -7,-4 -8,-5l-47 -31c-142,-97 -95,-69 -365,-62 -35,1 -69,0 -104,1 -18,0 -31,1 -49,4 -21,3 -27,2 -41,11z"/>
   <path class="fil1" d="M4286 2627c-1,20 12,8 -19,46 -22,28 -83,65 -128,155 -25,51 -13,100 -11,161 2,42 -13,149 -2,175 41,4 75,-5 110,-10 38,-5 78,-3 115,-3 80,-1 161,-5 239,-5 91,0 424,16 484,1 12,-63 -4,-96 17,-188 21,-93 62,-358 60,-426 -287,11 -591,-7 -865,94z"/>
   <path class="fil1" d="M1798 4027c26,-12 102,-92 125,-121 116,-147 106,-210 174,-321 111,-180 225,-260 276,-344 36,-59 77,-89 115,-137 12,-14 17,-22 28,-36 10,-13 19,-21 29,-36 17,-25 31,-44 51,-71 52,-68 349,-349 388,-362 15,-6 85,-13 107,-16 78,-8 154,-16 233,-20 237,-13 459,27 649,-98 41,-27 103,-82 118,-132 -12,-19 -20,-48 -30,-65 -15,5 -48,26 -63,35 -25,14 -36,18 -61,30 -125,56 -305,91 -446,108 -180,22 -320,-5 -482,-63 -35,-13 -110,-44 -137,-45l-70 92c-22,30 -47,60 -70,92l-107 138c-11,16 -24,27 -35,42 -14,19 -18,27 -36,47 -12,14 -25,33 -34,45l-469 549c-47,46 -259,288 -309,356l-35 43c0,36 29,120 39,155 15,50 48,114 52,135z"/>
   <path class="fil1" d="M8567 2681c26,10 48,27 72,40 28,15 49,28 75,41l444 270c7,-8 40,-73 50,-90l155 -276c72,-101 126,-217 192,-325 10,-17 24,-26 19,-53 -9,-5 -172,-47 -190,-50l-189 -48c-26,-10 -67,-13 -95,-21 -54,-15 -272,-65 -306,-64l-167 432c-18,42 -53,104 -60,144z"/>
   <path class="fil1" d="M5533 3733l-8 561c61,25 72,-4 209,46 61,22 126,50 182,69 56,19 120,50 176,76 36,17 159,72 186,75 1,-1 3,-5 4,-4l66 -71c32,-32 89,-65 132,-82 35,-14 41,-13 70,-32 19,-12 -4,-3 26,-13 20,-7 36,-10 60,-12 2,-30 2,-139 -7,-164 -40,-8 -117,1 -165,2 -61,1 -127,5 -187,3 -1,-2 -2,-7 -2,-6l-7 -218c1,-38 10,-47 -23,-50 -286,-31 -172,-31 -327,-125 -107,-66 -285,-85 -385,-55z"/>
   <path class="fil1" d="M9190 3056c39,23 94,57 143,86l295 176c49,28 106,-47 131,-85 11,-18 291,-606 299,-640l-198 -168c-33,-25 -68,-50 -104,-76 -24,-17 -24,-26 -56,-34 -33,-7 -49,-16 -79,-17l-109 187c-6,12 -17,32 -25,46 -4,6 0,-2 -7,12l-279 482c-8,17 -6,8 -11,31z"/>
   <path class="fil1" d="M10501 3397l532 37c10,-50 48,-651 42,-672 -18,-66 -283,-318 -405,-309 -54,157 -17,92 -106,229 -17,25 -46,79 -55,111 -15,52 -13,103 -26,149 -12,44 -37,80 -61,107 -61,69 -43,25 35,219 17,43 27,90 44,129z"/>
   <path class="fil1" d="M7456 4859c48,10 27,23 91,15 59,-8 62,2 123,-14 44,-11 113,-14 123,-17 64,-17 90,-14 131,-27 26,-8 76,-6 107,-9 76,-8 140,-8 216,-12 -1,-43 -14,-92 -17,-140 -9,-161 40,-102 -52,-178l-137 -101c-9,-6 -13,-10 -22,-17l-245 -181c-47,-33 -35,-47 -110,-49 -50,-2 -99,-2 -148,-4 -214,-8 -193,-41 -176,94 15,115 57,287 82,397 10,41 24,84 34,122 20,72 39,112 0,121z"/>
   <path class="fil1" d="M7162 2175c1,20 109,239 127,280 14,29 25,69 46,91 92,26 362,-16 458,-39 73,-18 173,-12 254,-8 253,14 215,70 228,-31 9,-64 25,-130 46,-190 18,-54 80,-188 67,-223 -97,-11 -218,3 -316,4 -220,4 -440,24 -665,24 -139,0 -69,15 -245,92z"/>
   <path class="fil1" d="M1592 1912c206,21 221,31 400,71l333 99c11,3 18,9 29,14 41,20 42,14 76,22l156 61c19,-1 58,-83 69,-105l185 -339c-25,-27 -193,-76 -246,-86l-305 -32c-285,-2 -485,-113 -540,-114 -34,66 -148,335 -157,409z"/>
   <path class="fil1" d="M9733 5623c141,-83 824,-304 886,-303 9,-38 23,-192 17,-228 -39,-22 -102,-13 -151,-17 -48,-3 -97,-14 -141,-15l-590 -71c-36,-9 -248,-37 -286,-34 -1,72 90,277 120,350l145 318z"/>
   <path class="fil1" d="M6719 3005l145 -46c118,-36 357,-14 481,-15 141,-1 133,-14 218,-80 -15,-11 -36,-16 -52,-25 -135,-76 -160,-149 -234,-322 -12,-29 -134,-308 -152,-316 -12,-5 -40,11 -50,16 -24,12 -35,18 -57,26 -83,33 -199,93 -277,118 -133,44 -108,60 -106,131 4,155 -72,318 84,513z"/>
   <path class="fil1" d="M7382 2044c81,6 180,1 264,1 85,-1 169,-13 253,-14l491 -12 -106 -621c-62,1 -144,9 -202,-5 -44,-11 -118,-54 -152,-50 -27,3 -50,17 -76,27 -65,26 -38,48 -125,191 -25,42 -54,90 -75,131 -18,36 -134,207 -169,244l-103 108z"/>
   <path class="fil4" d="M5214 976c46,7 -37,-3 35,50 65,47 97,138 78,230 82,-2 232,-13 305,0l-140 -3c26,-171 -7,-123 -25,-182 -13,-46 -8,-18 -27,-61 -6,-12 -12,-22 -17,-31l-20 -3 -3 -28c10,-10 1,-4 18,-6l47 -155c7,-25 -4,-7 47,-54l217 -175c44,-42 41,-18 48,-56l-1538 4c4,42 10,37 39,54 20,12 5,7 30,16 5,2 9,2 15,5 20,8 27,23 71,32 76,16 29,7 64,19 37,13 38,-6 71,18l127 86c32,27 4,6 43,24 72,33 66,23 108,40 70,27 49,2 90,19l8 4c32,13 97,10 131,10 18,-1 27,-1 45,-4l99 -26c18,-9 39,-21 65,-12 12,54 -24,87 -14,151 -341,-6 -147,112 -421,2l-119 -35c-57,-13 -77,-43 -113,-9 -6,-14 -6,-18 -24,-26 -40,-17 -5,-3 -29,0 -28,3 9,8 -17,-3l-60 -23c-60,-15 -11,-4 -38,-15l-20 -5c-36,-10 -107,-42 -134,-65 -30,-26 -58,-65 -89,-74 -4,34 -18,7 3,36l142 110c2,1 6,4 8,4l106 37c37,17 36,12 69,22 51,15 93,21 143,30 44,8 103,23 142,38 44,16 85,39 127,49 119,30 109,-60 307,-39z"/>
   <path class="fil1" d="M5193 2533c-22,52 -25,232 -42,311 -9,36 -28,114 -31,143 -6,46 -6,124 -6,172 23,0 53,-22 88,-39 22,-12 64,-28 92,-37 73,-25 146,-25 220,-46 307,-83 227,-24 425,-33 64,-3 26,-38 9,-152 -15,-92 -30,-241 -32,-332 -3,-98 9,-83 -98,-88 -202,-9 -320,61 -453,85 -56,10 -112,5 -172,16z"/>
   <path class="fil1" d="M7489 5121c92,20 208,75 296,105 31,11 39,14 68,30 17,9 21,10 36,16l85 38c99,54 601,265 668,260 13,-37 10,-83 14,-123 5,-56 -27,-55 -86,-109 -59,-54 -32,-16 -107,-106 -84,-100 -164,-234 -194,-361 -10,-42 3,-41 -94,-40 -43,0 -90,4 -130,10 -82,12 -170,18 -245,34 -41,9 -71,13 -115,17 -41,3 -82,16 -129,19 -113,6 -46,-24 -67,210z"/>
   <path class="fil1" d="M1989 4233c29,23 83,24 126,22 36,-63 86,-176 118,-215 22,-26 58,-71 77,-90 88,-82 121,-158 151,-184 46,-39 40,-40 108,-61 51,-15 253,-39 280,-56 12,-14 -16,-429 162,-623 144,-158 288,-150 483,-83 25,9 81,17 107,23 32,7 436,27 491,21 -2,-105 -24,-113 31,-206 25,-41 55,-73 89,-105 10,-9 19,-17 29,-30 -67,0 -151,5 -214,27 -26,9 -56,21 -82,34 -30,15 -39,31 -77,45 -247,92 -750,64 -846,117 -54,30 -77,72 -104,135 -83,190 5,196 -223,261 -33,9 -18,4 -60,56l-88 119c-11,18 -1,5 -13,19 -47,53 -91,125 -128,161 -6,7 -22,30 -27,38 -44,64 -88,243 -165,319 -89,88 -67,82 -134,162l-58 65c-19,20 -22,10 -33,29z"/>
   <path class="fil1" d="M9848 4741c-2,45 33,192 45,236 101,8 702,84 741,72 11,-16 23,-201 31,-247 53,-278 86,-205 -30,-245l-160 -46c-74,-25 -49,-11 -115,-40 -12,-5 -25,-10 -37,-14 -26,-10 -49,-17 -76,-28l-75 -27c-30,-14 -50,-23 -83,-29 -20,43 -10,17 -27,41l-59 96c-15,20 -17,30 -29,49 -66,101 -51,120 -126,182z"/>
   <path class="fil1" d="M1400 4947l6 14c48,2 85,9 137,7 45,-2 90,-6 136,-7 51,-1 239,2 270,-6 7,-22 4,-26 -2,-51 -2,-8 -5,-20 -4,-28 4,-15 -1,-7 13,-18 29,14 30,60 39,89 55,3 386,-14 422,-29 17,-119 31,-73 54,-128 -29,-11 1,0 -29,-19l-211 -144c-26,-19 -18,-10 -18,-53 37,12 68,39 95,60 20,15 62,50 88,57 -5,-50 -68,-394 -81,-414 -22,-8 -250,5 -269,15 -25,44 23,152 46,177l100 80c0,1 23,5 11,39l-10 3c-2,0 -4,0 -5,0 -1,0 -3,0 -5,-1l-35 -22c-70,-57 -74,-74 -116,-124 -99,83 -123,172 -91,294l21 90c-1,31 8,8 -13,24 -27,-11 -15,-2 -25,-34l-26 -115c-12,-56 -15,-110 10,-161 63,-127 118,-100 102,-172 -17,-81 8,-76 -26,-102 -13,-9 -1,0 -12,-8l-14 -8c-5,45 10,26 -16,64 -12,18 -24,36 -36,48 20,18 22,24 18,61 -41,30 -27,29 -81,11 -10,25 -145,191 -181,233l-203 217c-16,18 -48,41 -59,61z"/>
   <path class="fil1" d="M6843 6661c39,3 91,-1 131,-2 67,-2 52,-11 112,-14 75,-4 184,2 260,-9 121,-17 261,-14 382,-18 41,-1 74,-9 118,-13 4,-19 -103,-201 -119,-233 -5,-9 -10,-19 -15,-29 -9,-17 -8,-13 -17,-29 -31,-56 -66,-121 -89,-181 -33,-3 -395,58 -459,74 -104,26 -247,35 -342,60 -31,8 -28,-11 -10,92 18,101 42,202 48,302z"/>
   <path class="fil1" d="M2888 3646c25,0 146,-14 172,-19 32,-7 52,-10 84,-14 64,-8 444,-12 458,-23l8 -32c0,-13 -2,-31 -3,-44 -4,-93 -1,-140 -27,-237 -13,-48 -23,-89 -38,-135 -18,-56 14,-89 24,-142 -36,-20 -236,-64 -293,-64 -162,0 -248,106 -308,237 -19,43 -38,87 -43,135 -4,31 -14,43 -19,73l-15 265z"/>
   <path class="fil1" d="M3974 7216c182,-28 572,41 745,78 12,-160 28,-301 29,-464 -50,-6 -115,-27 -167,-38 -93,-20 -463,-113 -504,-112 -74,3 -113,142 -135,172 -59,82 -71,66 -42,133l74 231z"/>
   <path class="fil1" d="M3553 1400c13,15 4,3 19,16 33,26 32,10 80,43l134 92c64,74 71,72 117,154 27,-1 159,-85 183,-100 18,-12 28,-14 46,-25 19,-12 25,-17 44,-27 15,-8 29,-17 45,-27 14,-8 26,-14 45,-25l315 -182c20,-12 33,-14 37,-34l-602 -185c-16,-5 -24,-8 -43,-14 -169,-53 -132,-69 -201,8l-219 306z"/>
   <path class="fil1" d="M6602 2398c-3,-18 2,-18 1,-54 -4,-90 -2,-480 -11,-497 -11,-11 -199,-117 -210,-120 -15,21 -32,39 -55,61 -43,41 -126,149 -173,195l-168 193c-30,37 -31,31 -32,92 -4,211 -50,103 264,221 70,27 135,-13 190,-36 27,-11 61,-19 93,-29 41,-13 58,-30 101,-26z"/>
   <path class="fil1" d="M8680 5576l371 94c36,-138 139,-343 172,-519 7,-35 5,-74 5,-112 0,-28 7,-89 -12,-104 -8,-9 -447,-52 -486,-44 -12,27 -21,293 -24,343 -5,96 -32,254 -26,342z"/>
   <path class="fil1" d="M3899 5274c83,-29 150,-144 294,-65 77,42 273,33 360,12 4,-155 7,-378 0,-527 -49,-1 -93,5 -146,2 -51,-3 -95,-11 -148,-11 -102,1 -207,-5 -307,-3 -13,47 -55,527 -53,592z"/>
   <path class="fil1" d="M5952 2451c-13,96 42,528 61,548 17,19 132,13 158,13 110,1 422,26 498,1 -2,-44 -78,-110 -85,-250 -3,-53 7,-103 7,-154 0,-60 3,-117 7,-177 -55,15 -111,29 -162,49 -33,13 -120,52 -157,53 -85,4 -242,-89 -327,-83z"/>
   <path class="fil1" d="M4748 6793c-11,-71 -63,-167 -110,-220l-213 -226c-16,-17 -29,-31 -47,-49l-148 -143c-50,-50 -53,-42 -142,-50 -55,-5 -127,-16 -180,-14 -11,33 38,461 63,533 9,28 4,71 25,58 26,-16 26,-38 74,-33l336 72c113,25 229,52 342,72z"/>
   <path class="fil1" d="M5537 4788c16,11 403,4 445,6 69,3 198,31 272,45l425 47c3,-26 10,-48 15,-66l-295 -158c-18,-8 -30,-13 -48,-23 -30,-15 -57,-27 -86,-43 -50,-28 -98,-40 -147,-60l-138 -61c-101,-50 -281,-114 -400,-133 -71,-12 -57,-31 -52,191 1,45 0,230 9,255z"/>
   <path class="fil1" d="M1538 2290c125,10 195,22 312,48 53,13 247,80 286,74l74 -189c-68,12 -83,-118 35,-81l9 65c-41,22 -1,-6 -16,42 -13,41 -66,154 -63,179 28,17 219,80 243,79l158 -296c-75,-23 -154,-55 -229,-80 -71,-24 -157,-51 -239,-77 -145,-45 -377,-108 -528,-105l-11 36c-4,14 -8,28 -11,39 -7,26 -29,230 -20,266z"/>
   <path class="fil1" d="M10239 4385c43,28 442,158 497,163 1,-2 2,-6 3,-5l23 -44c57,-108 57,-88 126,-195 74,-114 59,-127 80,-164 7,-13 31,-110 21,-124 -32,-25 -555,-73 -626,-67 -25,66 -44,144 -63,213l-25 81c-5,20 -32,91 -36,142z"/>
   <path class="fil1" d="M5531 3691c37,11 171,-15 252,5 36,8 73,19 103,32 32,15 58,35 86,50 9,-60 15,-125 12,-188 -8,-121 -38,-267 -34,-367 2,-62 22,-129 19,-181 -132,-17 -271,-29 -397,16 -62,22 -74,-9 -70,75 6,128 11,454 29,558z"/>
   <path class="fil1" d="M6711 1866l111 62c20,11 38,20 58,31l161 104c72,52 50,28 98,81 37,-5 173,-85 210,-125l84 -83c106,-107 292,-413 334,-527l-537 223c-45,20 -85,34 -132,56l-387 178z"/>
   <path class="fil1" d="M967 2819c56,23 171,35 238,52l203 46c24,12 0,-2 12,8l8 9c27,-25 31,12 87,2 17,-41 -12,-242 -14,-301 -1,-46 -1,-294 -10,-310l-417 -61c-33,62 -92,357 -87,416 3,42 -14,93 -20,139z"/>
   <path class="fil1" d="M1554 2871l166 85c62,19 18,11 88,40 25,10 60,38 91,37l166 -433c13,-31 50,-127 51,-148 -96,-45 -413,-111 -510,-126 -92,-14 -71,9 -74,83 -3,87 10,395 22,462z"/>
   <path class="fil1" d="M8139 3044c-8,-13 9,-5 24,-47 7,-17 10,-42 15,-60l86 -370c-100,-43 -395,-39 -519,-19 -131,23 -179,43 -317,39 -72,-3 -102,-42 -43,75 75,147 179,156 344,223l410 159z"/>
   <path class="fil1" d="M10374 3912l469 42c33,5 113,18 142,13l10 -2c12,-47 44,-424 37,-486 -24,-11 -338,-33 -408,-38 -46,-3 -88,-13 -128,-16 -11,80 -32,126 -43,183 -13,63 -78,272 -79,304z"/>
   <path class="fil1" d="M2316 511l-143 0 -692 320 -2 285c50,9 105,25 162,35 54,10 118,21 172,31 39,7 51,-1 67,-34 22,-46 163,-237 199,-290 60,-88 146,-197 215,-281 18,-22 29,-26 40,-54l-18 -12z"/>
   <path class="fil1" d="M1661 7074c22,0 113,-62 145,-82l55 -41c73,-36 54,-28 126,-74 53,-34 76,-66 105,-88l39 -32c59,-52 87,-72 158,-105 -23,-108 -24,-218 -44,-319 -46,-10 -250,14 -294,32 -63,25 -149,116 -188,154 -73,71 -100,76 -109,223 -4,56 -6,112 -1,168 3,31 12,47 9,77 -4,41 -4,44 -1,87z"/>
   <path class="fil1" d="M660 3378c-11,30 -14,116 -18,155l-4 52c-1,2 -1,4 -1,6l-16 93c-13,65 -55,244 -34,301 45,17 201,-12 262,-10 14,0 51,0 60,1 60,7 151,19 213,13 4,-66 5,-130 12,-199 3,-29 28,-170 25,-181 -31,-14 -118,-19 -142,-32l-10 -91c-2,-40 16,-37 16,-82 -47,-8 -342,-37 -363,-26z"/>
   <path class="fil1" d="M8696 6492l32 111c6,20 13,35 17,57 2,12 1,19 4,27 4,15 8,4 19,51 11,45 47,129 61,191 15,73 40,143 64,220 22,72 41,149 63,221 63,-22 224,-138 294,-177 -5,-43 -53,-156 -69,-207 -24,-71 -48,-140 -73,-209 -50,-133 -90,-285 -148,-413l-125 66c-40,19 -111,44 -139,62z"/>
   <path class="fil1" d="M4211 3911c11,49 30,97 3,170 -25,67 -16,106 -14,178 2,126 1,263 8,388 34,12 233,14 296,15l41 -3c29,-7 -28,-191 114,-252 -5,-40 -214,-511 -247,-598 -30,8 -169,81 -201,102z"/>
   <path class="fil1" d="M6266 3875c16,-101 -1,-231 -1,-337 1,-55 -7,-308 5,-340 32,-14 397,-1 485,-14 10,-36 -39,-112 -58,-134 -54,-6 -110,6 -165,6 -109,0 -458,-22 -523,-8 -53,222 -3,312 9,523 6,103 -24,227 9,255 36,32 175,66 239,49z"/>
   <path class="fil1" d="M9471 5747c37,-18 77,-31 117,-50 43,-20 73,-38 114,-56 -13,-29 -26,-56 -43,-85 -22,-38 -78,-180 -101,-234 -6,-13 -2,-3 -9,-17 -36,-76 -105,-272 -121,-355 -20,-7 -143,-16 -164,-10 -6,34 8,112 -8,222 -10,68 -27,117 -49,178 -29,78 -109,261 -114,339 86,9 262,65 378,68z"/>
   <path class="fil1" d="M5540 4832c-3,52 8,273 20,317l393 -28c299,-43 202,65 248,167l153 -3 91 -373c-1,-15 1,-7 -4,-16 -118,-20 -163,-14 -320,-44l-107 -17c-129,-16 -349,-24 -474,-3z"/>
   <path class="fil1" d="M3362 4730c0,52 9,123 16,174l34 350c2,71 -12,150 25,185 1,2 6,5 7,7 1,0 2,2 3,3l410 322c2,-51 6,-373 -3,-395 -8,-9 -93,-16 -146,-74 -30,-33 -42,-128 -47,-178l-26 -202c-13,-64 -8,-144 -18,-207l-255 15z"/>
   <path class="fil1" d="M5248 5184c17,8 245,-16 264,-26 15,-26 -12,-342 -15,-399 -7,-137 -12,-288 -8,-425 -81,-11 -265,4 -354,9 -28,2 -59,-2 -63,22 0,5 6,76 7,86 11,100 99,44 124,418 3,36 12,51 16,78 6,30 -7,180 29,237z"/>
   <path class="fil1" d="M7852 5871c17,-25 154,-468 156,-507 -79,-43 -435,-192 -517,-206 -6,192 -13,319 41,499 10,34 20,71 29,107l30 112c13,10 233,3 261,-5z"/>
   <path class="fil1" d="M8749 4273c-8,24 -8,247 -11,297 -2,48 -20,255 -8,278 23,10 439,45 485,42 3,-88 -35,-222 -45,-315 -6,-55 -13,-114 -18,-166 -4,-53 -1,-106 -23,-155 -47,15 -346,8 -380,19z"/>
   <path class="fil1" d="M9123 4214c17,-24 -5,-162 -9,-192 -12,-82 1,-57 -16,-139 -9,-43 -32,-420 -46,-439l-196 -77c-36,38 -92,503 -99,586 -7,83 -3,176 -10,248 -4,35 7,32 46,34 46,2 303,-8 330,-21z"/>
   <path class="fil1" d="M3519 7063c100,-15 202,-53 276,-100 68,-43 127,-125 163,-217 10,-28 -15,-86 -27,-116 -7,-17 -2,5 -6,-18 -22,-129 -43,-340 -54,-477 0,-4 -1,-22 -2,-24 0,-2 0,-4 -1,-5l-3 -11c-7,-23 -148,-24 -178,-26 -13,275 -52,499 -113,758 -17,73 -45,165 -55,236z"/>
   <path class="fil1" d="M9742 7202l61 -111c123,-234 51,-48 156,-385 16,-50 72,-242 62,-284 -4,-15 -41,-134 -45,-138 -14,-17 -2,-12 -62,10 -111,42 -285,100 -370,167 -31,24 -18,48 16,121 14,33 60,224 79,275 28,76 64,270 103,345z"/>
   <path class="fil1" d="M3257 3639c-11,38 5,313 7,376 116,-7 225,-19 340,-27 59,-4 117,-9 175,-13l171 -18c4,-59 26,-298 15,-335l-708 17z"/>
   <path class="fil1" d="M9173 4245c2,52 12,106 17,158 2,29 3,56 7,85 18,132 -13,34 164,100 83,30 189,108 260,120 58,9 124,22 176,7l-43 -464c-6,-28 -15,-23 -44,-31 -28,-8 -29,-13 -58,-16 -23,-2 -49,0 -71,0l-408 41z"/>
   <path class="fil1" d="M5071 4308c32,5 392,-9 417,-15l5 -552 -378 13c-69,1 -68,-7 -70,64 -2,80 -4,186 7,259 9,65 2,185 19,231z"/>
   <path class="fil1" d="M1931 3053c20,15 207,109 234,113l431 -534c-34,-35 -398,-166 -440,-165l-114 289c-24,65 -45,100 -59,166 0,3 -1,8 -2,10 0,2 -1,4 -2,5 0,2 -1,3 -2,5 -1,2 -20,27 -22,30 -1,2 -4,6 -5,8 0,1 -1,3 -1,4l-18 69z"/>
   <path class="fil1" d="M4118 2305c42,-36 77,-90 130,-127 62,-42 87,-70 130,-128 91,-122 105,-183 234,-284l-8 -7c-27,-30 21,28 -6,-8 -10,-12 0,1 -10,-16 -20,-36 -35,-59 -72,-68 -32,-8 -137,-33 -162,-33 -15,31 -13,78 -18,116 -10,70 -2,94 -39,96 -21,-30 16,-173 17,-220 -12,-5 -42,-13 -57,-16 -20,-5 -50,-14 -55,-15 -32,-6 -237,121 -274,143 4,46 51,106 60,175l51 173c29,94 27,126 57,103 5,-4 12,-11 17,-16 78,-81 111,-136 150,-237 5,-14 3,-10 10,-22 12,-22 -1,-5 13,-21 -11,-10 -23,-5 -9,-46 31,13 4,-9 38,36 1,1 3,5 4,4 0,-1 2,3 3,5 -10,41 -5,8 -18,33l-34 88c-97,219 -225,194 -152,292z"/>
   <path class="fil1" d="M1770 1470l147 51c52,21 105,29 165,41 32,7 321,39 367,30 1,0 3,-1 5,-1 29,-7 18,-177 18,-210 0,-72 5,-148 1,-217l-457 47c-168,14 -126,-16 -173,81 -14,31 -77,147 -73,178z"/>
   <path class="fil1" d="M3336 6035c12,286 16,589 21,877 0,29 -5,118 9,137 21,30 86,28 120,13 9,-10 95,-428 104,-474l60 -529c-53,-4 -106,-10 -159,-16 -25,-2 -49,-4 -74,-6 -68,-8 -51,-8 -75,-3 -2,0 -4,0 -6,1z"/>
   <path class="fil1" d="M10162 6849c27,-14 78,-69 101,-92l123 -122c2,-1 6,-5 7,-6 1,-1 3,-2 4,-3 1,-1 2,-2 3,-3l42 -42c31,-31 101,-93 116,-118l-584 -491c-15,-18 -29,-27 -44,-41 -15,-14 -28,-24 -44,-40 -15,-17 -26,-27 -42,-40 22,70 68,159 96,232 31,79 60,161 85,244 26,89 93,298 110,381 4,24 20,131 27,141z"/>
   <path class="fil1" d="M8649 6003c6,84 -18,260 0,350 3,20 23,89 30,98 32,16 248,-110 307,-154l13 -8c5,-3 15,-8 21,-11 4,-2 19,-10 22,-12l296 -183 -45 -147c-5,-23 -1,-24 -10,-51 -110,25 -203,44 -319,59 -55,7 -108,14 -164,23 -51,8 -105,28 -151,36z"/>
   <path class="fil1" d="M4718 4415c-12,52 12,59 15,126 7,161 -2,504 9,621 33,14 200,53 232,48 21,-75 13,-133 15,-145 4,-24 9,-11 13,-47 18,-162 53,-532 34,-662 -51,-9 -265,43 -318,59z"/>
   <path class="fil1" d="M5059 3719c45,5 392,-9 429,-20 6,-29 -21,-599 -26,-612 -38,-10 -160,28 -202,46 -31,12 -59,27 -88,41 -48,22 -61,11 -61,77 0,97 -63,402 -52,468z"/>
   <path class="fil1" d="M7744 4107c20,18 31,27 57,44 19,13 43,34 62,48 11,9 19,13 31,20l280 211c31,22 40,39 65,41 31,-110 23,-146 68,-257 16,-38 46,-128 46,-159l-399 -287c-29,23 -81,122 -109,166l-101 173z"/>
   <path class="fil1" d="M3337 5985c65,23 437,62 525,66l-5 -230 -129 -106c-86,-63 -175,-146 -261,-203 -1,0 -3,-1 -4,-2l-144 -119c-20,29 -5,71 -4,128l22 466z"/>
   <path class="fil1" d="M7571 497l-333 1c10,84 5,94 -13,170 -2,6 -7,22 -7,23 -32,107 -43,206 -38,321 124,14 364,14 490,-2 2,-50 -83,-434 -99,-513z"/>
   <path class="fil1" d="M2170 5696l401 -5c1,-32 -58,-463 -79,-519 -93,-1 -253,22 -368,25 -68,2 -69,-3 -54,65 16,68 86,405 100,434z"/>
   <path class="fil1" d="M6817 4337c44,28 73,29 122,92l87 133c23,44 45,60 57,90 29,67 70,120 134,157 17,10 27,15 46,25 23,11 16,10 50,20 2,1 3,1 5,2 43,14 68,21 122,20 12,-40 -77,-346 -97,-452 -10,-52 -18,-110 -33,-160 -87,-7 -422,-25 -491,-12l-2 85z"/>
   <path class="fil1" d="M8414 3582c-2,-69 -32,-134 -44,-195 -18,-87 -21,-138 -30,-222l-363 -139c-45,-17 -80,-40 -124,-48 11,55 74,229 101,296 10,27 8,44 15,70 12,38 67,135 82,240 9,61 37,59 97,54 42,-4 238,-40 266,-56z"/>
   <path class="fil1" d="M8588 4705l109 -1 12 -435c-61,-29 -147,-61 -205,-99 -18,-12 -12,-14 -35,-29 -22,-13 -21,-9 -40,-26 -12,-11 -18,-19 -36,-26 -33,36 -83,239 -84,242 -12,24 -10,20 -16,55 -7,40 -18,76 -19,114 -9,206 -26,188 56,192 89,5 167,13 258,13z"/>
   <path class="fil1" d="M9377 2196c34,17 160,52 205,50l161 -779c4,-22 0,-35 6,-58 7,-25 13,-25 13,-60 -21,-8 -213,-8 -228,-6 -34,4 -23,9 -30,46 -39,187 -104,622 -127,807z"/>
   <path class="fil1" d="M1903 1181c69,8 484,-32 576,-65l2 -528c-16,-15 -75,-39 -104,-48 -24,18 -47,52 -63,75l-241 313c-20,26 -40,54 -59,83l-41 62c-1,1 -2,3 -3,4l-5 8c0,0 -7,8 -9,10l-53 86z"/>
   <path class="fil1" d="M10257 6176c36,-8 269,-183 322,-218 11,-7 21,-11 32,-20 16,-11 19,-14 34,-24l123 -92c-63,-54 -837,-68 -967,-68 21,37 79,76 112,110l344 312z"/>
   <path class="fil1" d="M8830 3312c19,-33 59,-151 89,-213l56 -129c-29,-36 -342,-215 -424,-258 -30,65 -62,139 -91,212 -15,38 -27,68 -42,106 -11,28 -45,94 -26,115 16,17 1,3 37,14l42 14c22,10 6,6 25,15l277 104c24,8 23,14 57,20z"/>
   <path class="fil1" d="M4436 3530c50,3 593,-29 605,-36 25,-38 32,-243 39,-306l-522 -4c-140,0 -119,-26 -122,107 -2,78 -1,161 0,239z"/>
   <path class="fil1" d="M9197 1347l-32 410c0,54 -16,135 -26,189 -15,82 -38,131 -31,187 11,5 213,60 228,48 15,-13 45,-303 48,-311 19,-51 8,-43 18,-107 8,-58 25,-138 36,-208 5,-37 13,-63 18,-104 8,-63 19,-55 15,-107l-274 3z"/>
   <path class="fil1" d="M9387 6103c3,20 115,326 122,336 13,-6 29,-21 43,-30l54 -29c16,-8 11,-8 26,-14 7,-3 27,-6 36,-9 12,-4 43,-22 56,-28 80,-33 160,-60 236,-90 -15,-63 -168,-438 -195,-465 -58,52 -67,113 -273,255 -28,20 -87,52 -105,74z"/>
   <path class="fil1" d="M1251 4025c21,-10 -4,-28 77,-10 76,16 153,31 226,63 29,13 43,8 84,-38 94,-103 101,-59 70,-155 -8,-24 -9,-15 -15,-30l-24 -112c-15,-58 -5,-62 -181,-81 -50,-5 -106,-17 -156,-26 -163,-32 -141,-54 -161,147 -7,72 -28,181 3,205 37,29 53,0 77,37z"/>
   <path class="fil1" d="M6209 5326c-6,38 39,377 50,420 66,4 398,-10 437,-36 2,-74 -9,-343 -20,-403 -6,-2 -432,15 -467,19z"/>
   <path class="fil1" d="M6307 3877c41,6 445,5 468,-3l-5 -398c-29,-5 -448,-4 -465,1l2 400z"/>
   <path class="fil1" d="M9280 7166c34,-1 132,-78 166,-97 67,-38 144,-41 197,-69l-147 -485c-28,6 -62,49 -124,90 -107,69 -100,54 -186,98 -55,29 -68,-4 -33,81 7,17 7,38 14,56l113 326z"/>
   <path class="fil1" d="M10352 3049c34,-12 84,-83 95,-124 16,-62 23,-176 78,-249 48,-64 98,-138 105,-228 -68,-10 -376,-39 -435,-35l-82 156c-18,36 37,94 71,158 14,26 30,50 44,79l85 160c16,28 22,54 39,83z"/>
   <path class="fil1" d="M8809 2066l224 54c47,6 44,-22 69,-177 3,-18 2,-30 4,-45 4,-39 7,-17 13,-46 12,-56 44,-473 39,-506l-241 -1c-10,248 -4,329 -61,558 -13,50 -45,118 -47,163z"/>
   <path class="fil1" d="M7303 3754l23 324c29,15 334,17 386,12 9,-31 78,-133 99,-170l38 -59c14,-17 3,0 15,-23 16,-31 38,-57 49,-92 -53,-50 -72,-45 -122,-37 -99,16 -433,26 -488,45z"/>
   <path class="fil1" d="M2985 4742c6,135 30,281 38,408 38,13 174,116 221,147 8,6 14,10 23,16l77 58c2,0 3,2 4,2l31 13c5,-63 -44,-621 -59,-655 -81,-19 -244,30 -335,11z"/>
   <path class="fil1" d="M6741 4801c24,22 316,162 339,172 59,25 129,46 184,67 38,15 167,66 191,57 1,-47 12,-148 -8,-183 -72,-14 -133,-5 -228,-61 -91,-55 -93,-65 -148,-143l-108 -182c-10,-17 -19,-28 -28,-43 -18,-29 -80,-106 -118,-100 -10,68 5,157 -11,234 -12,62 -62,126 -65,182z"/>
   <path class="fil1" d="M4634 1748l125 -91c43,-32 80,-80 113,-113 106,-106 186,-239 198,-251 -95,-5 -189,-2 -285,0 -133,3 -96,8 -207,69l-348 205 234 53c61,14 132,11 170,128z"/>
   <path class="fil1" d="M2209 4164c143,-39 132,-52 313,-80 119,-17 246,-27 366,-37l-28 -350c-51,-12 -186,23 -240,34 -121,26 -105,26 -172,111l-163 192c-17,17 -19,18 -33,38 -13,18 -44,69 -43,92z"/>
   <path class="fil1" d="M8697 4226c24,-19 18,-31 17,-69 0,-137 11,-314 36,-448 7,-35 27,-132 25,-163 -35,-7 -225,49 -274,58 -66,12 -40,46 -54,111 -24,105 -42,183 -40,295 1,63 21,46 73,94 24,22 67,50 99,67 62,32 67,29 89,40 16,7 2,8 29,15z"/>
   <path class="fil1" d="M1074 3242c-13,37 -9,132 -16,178 -3,25 -2,29 -27,35l19 15c1,1 3,3 4,4l-5 73c24,11 576,108 597,107 -14,-88 -61,-268 -69,-329 -77,-10 -464,-97 -503,-83z"/>
   <path class="fil1" d="M5819 1908c26,17 134,21 174,26 29,3 63,4 92,10 52,10 56,1 107,-59l85 -95c35,-40 45,-37 73,-84l-175 -116c-49,-33 -280,-176 -306,-183 -10,86 -10,173 -22,256 -8,56 -31,196 -28,245z"/>
   <path class="fil1" d="M8660 5364c12,-70 39,-558 30,-614l-412 -18c1,58 31,156 50,203 6,13 9,28 15,43 37,87 117,203 180,265 13,13 19,20 32,33l67 62c17,16 20,15 38,26z"/>
   <path class="fil1" d="M3900 5316c-5,40 -11,214 -2,241 24,12 469,24 526,19l-5 -299c-46,-17 -107,-1 -157,-13 -45,-11 -88,-28 -133,-42 -42,-14 -70,-1 -121,30l-108 64z"/>
   <path class="fil1" d="M8306 2533c31,24 73,40 113,60 37,20 81,51 118,62l147 -375c1,-2 1,-3 2,-5l43 -104c6,-15 4,-26 11,-42 3,-7 40,-34 -17,-43 -87,-13 -205,-36 -288,-28 -11,18 -24,81 -36,111 -14,33 -30,75 -43,112 -28,81 -46,164 -50,252z"/>
   <path class="fil1" d="M5262 5226c-6,28 26,101 36,135 46,162 58,343 93,437 37,100 83,125 105,244 16,90 31,213 137,218 -20,-140 -75,-184 -94,-490 -5,-92 -7,-190 -8,-283 -1,-69 6,-230 -9,-288 -27,-5 -227,20 -260,27z"/>
   <path class="fil1" d="M7926 496l-319 1c21,86 36,174 53,260 67,330 3,246 221,242 57,-1 100,0 142,-20 9,-50 -81,-402 -97,-483z"/>
   <path class="fil1" d="M8996 6343c10,52 44,131 62,181l11 27c20,34 12,65 46,121 14,23 -6,3 14,21 36,-10 -9,4 22,-13 46,-26 100,-38 170,-82 13,-8 12,-9 19,-14l143 -114c-17,-13 -13,-12 -19,-41l-46 -133c-23,-56 -38,-121 -65,-173 -21,4 -34,14 -48,22 -14,9 -30,17 -45,26l-152 94c-11,8 -13,10 -24,16 -33,16 -16,1 -45,25 -16,13 -30,21 -43,37z"/>
   <path class="fil1" d="M6902 3917c-27,0 -63,-5 -85,5 -1,340 -22,289 73,292 45,1 89,0 136,3 68,4 215,19 276,6 -5,-72 -13,-144 -19,-217 -3,-55 0,-187 -18,-228 -27,4 -214,125 -238,134 -32,13 -87,5 -125,5z"/>
   <path class="fil1" d="M4905 6148c56,7 299,57 333,38 10,-42 -11,-213 -25,-256 -23,-71 -65,-144 -84,-207 -21,-75 -72,-273 -84,-354 -4,-33 -6,-103 -30,-122 -25,32 -37,390 -43,461 -14,151 -44,296 -67,440z"/>
   <path class="fil1" d="M937 1067c51,54 -10,6 86,85 27,22 83,56 119,68 60,22 93,23 153,33 197,32 180,-30 178,92 -1,28 -7,65 2,91 1,0 247,19 250,19 13,-18 106,-216 109,-237 -36,-13 -83,-10 -124,-16l-348 -85c-76,-24 -147,-45 -215,-68 -40,-14 -71,-43 -107,-28 -36,15 -72,28 -103,46z"/>
   <path class="fil1" d="M2277 6265c42,-17 172,-146 230,-164 29,-9 80,-19 103,-32 8,-62 -19,-280 -33,-342l-383 7c-30,9 1,65 7,87 38,140 67,289 76,444z"/>
   <path class="fil1" d="M5066 5247c-3,94 71,392 101,485 23,74 62,122 83,206 23,91 18,176 31,260l71 -5c10,-23 19,-218 27,-266 12,-80 -31,-153 -48,-232 -31,-148 -47,-340 -116,-464l-149 16z"/>
   <path class="fil1" d="M3629 3337c29,8 317,9 342,2l16 -51c25,-87 74,-95 94,-112l11 -110c0,-38 -4,-31 -9,-37l-474 -26c-12,20 -20,50 -28,74 -16,45 -11,45 1,89 10,37 34,146 47,171z"/>
   <path class="fil1" d="M4741 6668c25,-41 44,-184 59,-242 13,-46 62,-216 52,-249l-595 -57c7,23 11,22 29,38l349 360c23,32 84,128 106,150z"/>
   <path class="fil1" d="M2634 2194c32,15 192,79 231,85l75 -95c15,-21 19,-29 35,-50 15,-20 22,-30 37,-52 46,-70 104,-132 146,-204 -21,-20 -247,-126 -281,-130 -23,36 -39,69 -60,106 -22,39 -45,78 -62,113l-121 227z"/>
   <path class="fil1" d="M3953 4643l217 7c18,-105 -29,-473 3,-559 21,-58 30,-98 6,-161 -49,-6 -14,3 -87,30 -13,5 -82,27 -89,31 -29,17 -34,267 -31,317 1,32 -35,272 -19,335z"/>
   <path class="fil1" d="M4453 3803c-1,15 69,194 89,228l7 9c23,11 414,-7 461,-16l0 -263c-90,-5 -503,10 -557,42z"/>
   <path class="fil1" d="M3521 1377c19,-21 41,-59 62,-85l131 -178c22,-28 56,-62 66,-93 -35,-9 -82,-24 -123,-38 -71,-25 -337,-112 -368,-112 -8,61 27,255 54,311 36,75 88,126 147,176 25,21 13,16 31,19z"/>
   <path class="fil1" d="M4464 6106l398 38c15,-26 22,-70 27,-100 8,-52 3,-52 -17,-94 -27,-54 -56,-110 -79,-163l-336 -13 7 332z"/>
   <path class="fil1" d="M7601 5916l-5 24c-2,53 22,136 41,181 31,72 126,244 168,322 13,25 30,56 44,79 29,48 16,38 47,80l65 -4c8,-22 -59,-398 -69,-456 -7,-39 -20,-211 -40,-226 -22,-17 -206,-1 -251,0z"/>
   <path class="fil1" d="M4011 3563c38,-1 156,-8 192,-14 23,-3 17,-6 46,-9l144 -9c12,-28 8,-289 8,-341 -78,-18 -201,4 -269,12 -41,5 -44,4 -67,29 -35,39 -52,68 -55,138 -2,47 -5,153 1,194z"/>
   <path class="fil1" d="M6816 3873c20,10 108,6 138,6 81,1 57,2 116,-33 34,-21 61,-34 95,-54 31,-18 62,-41 90,-57 -19,-60 -157,-170 -208,-210 -53,-40 -189,-65 -228,-51 -23,8 -12,93 -11,122 2,78 -2,207 8,277z"/>
   <path class="fil1" d="M3651 4706c11,126 21,257 41,381 18,117 11,189 90,226 10,5 58,25 73,25 8,-20 22,-280 27,-329 8,-73 38,-262 24,-326 -66,-6 -203,-9 -255,23z"/>
   <path class="fil1" d="M3894 5802l224 194c28,31 68,85 113,92 36,5 167,18 197,14l-8 -324 -526 -23 0 47z"/>
   <path class="fil1" d="M3274 4195c-8,31 0,168 3,208 56,19 286,-6 355,-26 51,-15 103,-34 148,-53 38,-17 112,-38 145,-57 18,-10 14,-76 7,-95 -207,-13 -451,4 -658,23z"/>
   <path class="fil1" d="M704 1160c21,64 60,97 115,133 145,95 192,119 373,134 52,4 198,27 237,7 1,-1 2,-5 2,-4l7 -132c-177,-15 -280,-8 -414,-101 -52,-36 -56,-39 -86,-75l-6 -7c-17,-18 -29,-31 -47,-29 -25,3 -163,62 -181,74z"/>
   <path class="fil1" d="M6639 2361c30,-1 437,-176 462,-199 -9,-20 -27,-34 -42,-45l-260 -159c-1,0 -3,-1 -4,-2l-14 -6c-1,0 -3,-1 -4,-2 -1,-1 -3,-2 -4,-3l-7 -5c-1,-1 -3,-2 -4,-3 -24,-17 -104,-61 -131,-66l8 490z"/>
   <path class="fil1" d="M1152 4691c34,-63 89,-136 119,-192 72,-140 78,-136 172,-221l85 -70c102,-92 27,-45 144,-102l99 -60c-5,-26 -17,-31 -25,-55 -36,22 -86,106 -224,179l-204 106c-85,38 -163,67 -252,103 -46,19 -224,90 -246,108 26,32 129,82 167,103 31,16 56,30 88,47 19,10 70,34 77,54z"/>
   <path class="fil1" d="M2949 4713c-4,-50 -7,-200 -26,-233l-323 29c-52,4 -120,4 -163,13 -39,7 -38,0 -10,129 12,52 -4,72 62,111 22,13 159,-27 207,-32l253 -17z"/>
   <path class="fil1" d="M2359 4271c0,57 28,164 38,219 40,2 92,-9 134,-13 39,-5 92,-1 133,-7 38,-6 55,-15 110,-17 45,-1 107,2 149,-5l-16 -221 -548 44z"/>
   <path class="fil1" d="M2924 4042l303 -22 -4 -376c-113,4 -155,18 -246,30 -125,16 -76,-43 -53,368z"/>
   <path class="fil1" d="M3992 3958c62,-36 5,5 106,-39 67,-29 257,-129 306,-138l-6 -210c-56,-3 -330,16 -374,26 -27,7 -21,47 -20,76 0,40 -7,57 -8,91 -3,65 -3,131 -4,194z"/>
   <path class="fil1" d="M6314 4574c20,22 188,100 238,128l24 14c13,6 13,5 26,12 31,17 67,39 100,50 16,-22 62,-133 69,-167 8,-39 13,-199 5,-230 -20,-10 -118,1 -149,8 -120,27 -237,91 -313,185z"/>
   <path class="fil1" d="M10294 6202c15,23 39,36 62,56 26,24 12,10 39,26l57 47c15,12 -1,4 16,16 26,20 17,-6 40,24 23,29 -1,9 32,33 16,12 22,20 43,23l181 -446c19,-48 43,-103 60,-153 -20,9 -50,34 -64,46 -22,18 -48,34 -68,49l-266 186c-20,16 -40,30 -64,46 -23,15 -50,32 -68,47z"/>
   <path class="fil1" d="M4905 5937c32,-82 41,-394 48,-511 3,-55 17,-116 13,-172 -26,-12 -189,-46 -220,-47 -10,68 -5,366 16,421 44,115 91,204 143,309z"/>
   <path class="fil1" d="M4697 4380l246 -51c37,-4 51,-2 87,-14l-13 -254c-72,-2 -144,8 -211,11 -61,3 -163,0 -219,9 -26,5 -19,3 5,62l84 201c3,8 6,13 8,18 4,7 3,-1 13,18z"/>
   <path class="fil1" d="M9812 1310c53,0 241,9 255,-2 14,-15 8,-3 9,-30l1 -123c4,-53 11,-99 16,-149 17,-166 63,-139 -117,-169 -99,-16 -72,-43 -115,193 -11,62 -51,228 -49,280z"/>
   <path class="fil1" d="M4437 3569l5 193c43,5 24,-14 131,-17 47,-1 91,-9 141,-11 82,-3 232,0 303,-12l23 -182c-32,-9 -569,19 -603,29z"/>
   <path class="fil1" d="M8456 3577c43,-4 292,-62 320,-78l14 -34c3,-13 4,-26 6,-39 6,-36 17,-41 19,-75 -32,-19 -404,-167 -431,-171 -29,37 63,379 72,397z"/>
   <path class="fil1" d="M6717 5262c28,11 265,3 295,-9 0,-58 18,-227 12,-263l-294 -151c-30,4 -17,371 -13,423z"/>
   <path class="fil1" d="M5632 1256c101,13 125,55 189,78 8,-5 6,-10 18,-13 -19,-57 3,-258 -6,-339 -32,-11 -365,-10 -410,-3 5,9 11,19 17,31 19,43 14,15 27,61 18,59 51,11 25,182l140 3z"/>
   <path class="fil1" d="M8174 3072c103,19 117,53 166,48 9,-13 16,-34 23,-48l154 -378c-148,-101 -194,-100 -216,-114 -37,90 -50,226 -72,314l-55 178z"/>
   <path class="fil1" d="M6302 3389l2 42c31,12 405,12 463,9 -2,-36 2,-200 -10,-212 -13,-12 -280,-5 -334,-5 -149,1 -122,-21 -121,166z"/>
   <path class="fil1" d="M7919 3698c19,27 79,56 108,77 67,48 18,-2 68,48l269 193c1,-74 12,-131 26,-204 7,-38 36,-154 30,-185 -15,-2 -210,35 -241,42 -19,4 -254,29 -260,29z"/>
   <path class="fil1" d="M3210 508l-337 1c-11,32 -13,69 -26,90 0,1 -2,2 -3,4 -15,23 -21,42 -23,74 63,12 371,128 429,136l-40 -305z"/>
   <path class="fil1" d="M3266 4045l4 117c71,6 245,-15 329,-19 109,-5 233,0 339,-9 10,-33 15,-108 7,-137 -49,-11 -611,33 -679,48z"/>
   <path class="fil1" d="M6943 632c-14,22 -16,43 -21,69 -10,56 -7,-7 -21,72 -11,58 -26,98 -22,161 24,12 239,64 264,63l15 -198c18,-124 27,-67 22,-117 -5,-46 5,1 9,-40 -67,-6 -184,-16 -246,-10z"/>
   <path class="fil1" d="M6397 5275c40,15 251,4 282,-7 3,-40 0,-335 -10,-346 -15,-14 14,0 -12,-6l-168 -9 -92 368z"/>
   <path class="fil1" d="M1610 3292c29,13 143,39 174,37 17,-50 96,-224 95,-257 -26,-11 -52,-27 -80,-40 -30,-14 -61,-20 -65,-55l-70 -12c-1,0 -3,-1 -4,-2 -14,-6 -47,-12 -73,-29 -24,-16 -5,-11 -30,-17l7 68c1,2 1,3 2,5l11 121c2,27 24,154 33,181z"/>
   <path class="fil1" d="M4458 5274l1 300 253 9 -5 -356c-51,-15 -91,5 -130,19 -33,12 -85,17 -119,28z"/>
   <path class="fil1" d="M3625 4422l22 248c44,-6 82,-16 129,-20 35,-3 108,-3 137,-13 -1,-101 25,-234 16,-327 -29,4 -285,99 -304,112z"/>
   <path class="fil1" d="M2549 4799l335 258c23,18 11,5 38,18 21,10 34,27 61,38l-30 -364c-38,-4 -57,5 -83,7 -22,2 2,0 -14,0 -34,0 -60,6 -99,7 -59,2 -165,9 -208,36z"/>
   <path class="fil1" d="M2968 4480c-14,34 10,184 14,234l331 -24c6,-35 -17,-203 -28,-236 -16,-5 -294,18 -317,26z"/>
   <path class="fil1" d="M2524 5151l411 -21c-9,-13 -56,-37 -69,-47l-82 -50 -6 -29c-56,-4 -36,-20 -70,-40 -22,-12 -28,-10 -47,-25l-60 -50c-1,-1 -3,-2 -4,-2l-21 -18c-13,-10 -54,-45 -68,-46 -19,-2 -46,38 -50,51 -12,43 25,167 39,212l20 49c0,2 1,4 2,6l5 10z"/>
   <path class="fil1" d="M2012 4985c-7,27 31,145 40,185l423 -34c-2,-42 -16,-51 -29,-88 -7,-21 -10,-59 -22,-84 -47,-11 -343,15 -412,21z"/>
   <path class="fil1" d="M6309 4147c43,11 288,5 320,-7l-4 -222c-66,-9 -203,-3 -278,-4 -64,0 -41,26 -41,95 0,35 -4,107 3,138z"/>
   <path class="fil1" d="M2453 2522c19,15 60,27 84,38l35 16c1,1 3,1 4,2 6,3 17,6 24,8 20,8 7,2 21,11 10,-16 14,-12 26,-29 17,-24 1,-15 25,-39l163 -211c-14,-13 -191,-83 -222,-88l-121 215c-9,16 -11,23 -20,38 -9,17 -14,24 -19,39z"/>
   <path class="fil1" d="M4311 2580c53,-5 118,-32 193,-41 31,-4 24,-9 54,-15 46,-9 99,0 147,-9l120 -16c1,0 4,1 5,-1 1,-2 4,-1 5,-1 3,-66 -9,-307 -28,-359 -24,14 -66,109 -84,145 -30,61 -63,89 -117,122 -94,57 -201,75 -295,175z"/>
   <path class="fil1" d="M9469 4920c32,3 62,1 95,5l284 48c3,-34 -30,-201 -44,-215 -19,-18 -40,-1 -73,-3 -185,-12 -125,-26 -220,-49 -20,31 -54,175 -42,214z"/>
   <path class="fil1" d="M3966 3583c11,-33 8,-160 6,-201l-330 -4c-7,32 -2,100 0,134 4,80 -16,81 59,81 47,0 234,0 265,-10z"/>
   <path class="fil1" d="M8150 495l-189 1c42,130 64,319 97,450 8,-4 20,-12 26,-16l22 -17c99,-76 98,-58 86,-138 -6,-47 -18,-95 -24,-134 -7,-45 -11,-99 -18,-146z"/>
   <path class="fil1" d="M3898 5713c52,10 483,30 521,25l2 -123c-56,-11 -472,-21 -526,-13 -3,35 -9,79 3,111z"/>
   <path class="fil1" d="M3329 4448c-4,31 17,204 24,241l253 -13c6,-46 -10,-143 -10,-190 -1,-43 2,-51 -17,-57 -16,-5 -227,14 -250,19z"/>
   <path class="fil1" d="M8572 494l-386 1 46 307c20,4 34,-11 49,-24l168 -154c39,-38 96,-90 123,-130z"/>
   <path class="fil1" d="M2941 4224c-2,33 5,69 8,102 11,143 -12,103 161,104 31,1 39,-8 58,-12 20,-5 48,-7 69,-11l-4 -205c-30,-10 -255,11 -292,22z"/>
   <path class="fil1" d="M9838 4697c8,-1 -10,13 14,-8 15,-12 6,-3 15,-17 27,-40 82,-149 132,-223 15,-21 14,-27 24,-46 10,-19 18,-19 28,-43 -25,-23 -121,-53 -156,-69l-13 -7c-11,-4 -10,-2 -20,-5 -27,-8 -37,-18 -69,-22 1,71 25,391 45,440z"/>
   <path class="fil1" d="M9257 4895l170 15c5,-43 44,-215 42,-230 -70,-46 -170,-87 -253,-83 -12,44 6,72 18,146 6,37 14,123 23,152z"/>
   <path class="fil1" d="M1692 3691l150 -174c14,-17 18,-22 29,-36 19,-26 44,-45 58,-74 -35,-14 -272,-72 -311,-71l74 355z"/>
   <path class="fil1" d="M1821 3344c52,5 99,29 137,36 42,-51 150,-139 175,-188l-78 -37c-33,-17 -116,-59 -142,-62 -18,65 -83,187 -92,251z"/>
   <path class="fil1" d="M661 3337c64,7 119,10 181,16 35,3 156,16 181,13 13,-32 12,-89 10,-128 -58,-11 -117,-5 -172,-13 -51,-7 -136,-15 -187,-7l-13 119z"/>
   <path class="fil1" d="M1115 992c24,20 279,108 328,109l2 -250c-46,9 -122,50 -169,71l-161 70z"/>
  </g>
 </g>
</svg>
